<?xml version="1.0" standalone="no"?>
<!DOCTYPE svg PUBLIC "-//W3C//DTD SVG 1.1//EN" "http://www.w3.org/Graphics/SVG/1.1/DTD/svg11.dtd" >
<svg>
<metadata>
Created by FontForge 20090622 at Mon Dec 11 05:29:20 2017
 By deploy user
More Services
</metadata>
<defs>
<font id="KrutiDev110" horiz-adv-x="762" >
  <font-face 
    font-family="Kruti Dev 110"
    font-weight="400"
    font-stretch="normal"
    units-per-em="1000"
    panose-1="0 0 0 0 0 0 0 0 0 0"
    ascent="800"
    descent="-200"
    x-height="156"
    cap-height="494"
    bbox="-533 -236 790 800"
    underline-thickness="20"
    underline-position="-123"
    unicode-range="U+0020-U+2122"
  />
<missing-glyph horiz-adv-x="500" 
d="M63 0v800h375v-800h-375zM125 63h250v675h-250v-675z" />
    <glyph glyph-name=".notdef" horiz-adv-x="500" 
d="M63 0v800h375v-800h-375zM125 63h250v675h-250v-675z" />
    <glyph glyph-name=".null" horiz-adv-x="0" 
 />
    <glyph glyph-name="nonmarkingreturn" horiz-adv-x="302" 
 />
    <glyph glyph-name="space" unicode=" " horiz-adv-x="302" 
 />
    <glyph glyph-name="exclam" unicode="!" horiz-adv-x="262" 
d="M170 189l-9 400l42 -22v-400zM192 -2l-42 43l42 42l42 -42z" />
    <glyph glyph-name="quotedbl" unicode="&#x22;" horiz-adv-x="184" 
d="M225 160l-28 -11l-31 -3q-40 0 -78 38q-17 17 -28 38.5t-11 38.5v180h-43l-20 53h273v-53h-157l152 -166l3 -11l2 -14v-52q-3 -12 -10.5 -20.5t-23.5 -17.5zM239 251l-2 7l-3 8l-3 3l-3 4l-126 137v-200q0 -23 11 -28l16 -4l25 -1h11q15 2 46 16q12 9 21 19q5 8 7 18v21z
" />
    <glyph glyph-name="numbersign" unicode="#" horiz-adv-x="362" 
d="M415 -58l-326 225q-52 53 -56 93l4 9l6 8l7 5l10 2q7 0 18 -6l22 -17l9 -3q22 0 22 46v137h-126l-21 53h378l22 -53h-210v-147l13 11l17 9l9 3l9 2l8 1l9 1q75 0 92 -81l2 -18q0 -16 -2 -25l-6 -26l-10 -28l-15 -28l-42 21q8 10 15 23l14 27l9 25l4 19q0 63 -42 63
q-24 0 -64 -23q-8 -4 -13 -10l-19 -20q-3 -13 -10 -22t-17 -14l-16 -9l-19 -7l329 -241z" />
    <glyph glyph-name="dollar" unicode="$" horiz-adv-x="302" 
d="M168 210v-143l-42 19v124h-112l-11 41h123v139l42 -14v-125h113l12 -41h-125z" />
    <glyph glyph-name="percent" unicode="%" horiz-adv-x="303" 
d="M146 283l-43 42l43 42l41 -42zM146 10l-43 41l43 43l41 -43z" />
    <glyph glyph-name="ampersand" unicode="&#x26;" horiz-adv-x="549" 
d="M26 210l-20 41h505l22 -41h-507z" />
    <glyph glyph-name="quotesingle" unicode="'" horiz-adv-x="378" 
d="M254 441l22 -24l17 -27l10 -30l4 -30q0 -29 -11 -61q-22 -66 -77 -102q-25 -16 -57 -24l240 -186l-10 -10l-253 189q-23 0 -42 7t-31 23l-6 12l-1 18l1 13l3 11l6 7q3 3 8 3l16 -3l16 -9l15 -16q7 -7 15 -25h12q23 0 52.5 25.5t42.5 58.5l-15 3l-11 3q-33 9 -57 23
t-45 34l-10 13l-9 19l-6 21l-2 20q0 28 17 43l-105 1l-21 53h410l21 -53h-159zM258 384q-8 41 -35 57q-12 9 -31 9q-22 0 -38 -18l-11 -23l-4 -32q0 -42 29 -62q28 -24 67 -24h11l8 2l6 23l2 29q1 14 -4 39z" />
    <glyph glyph-name="parenleft" unicode="(" horiz-adv-x="223" 
d="M146 283l-43 42l43 42l41 -42zM190 10q-4 -10 -22 -29l-31 -33l-34 -32v31l43 51v33l-29 43l39 42q42 -40 42 -86q0 -9 -8 -20z" />
    <glyph glyph-name="parenright" unicode=")" horiz-adv-x="533" 
d="M451 441v-105h-126q-31 0 -53 -21q-8 -7 -16 -24q-5 -13 -5 -30q0 -52 30.5 -80t82.5 -28l23 3l-5 8l-3 9l-3 8v9q0 28 22 29q10 0 19 -3t18 -13q8 -6 12 -16l4 -18q0 -7 -2 -11l-3 -8l-6 -8l-10 -7l104 -168l-20 -11l-84 127q-6 -22 -22 -39q-29 -39 -73 -57
q-22 -9 -41 -9q-45 0 -68 21q-24 18 -24 50q0 12 2 17l6 16l-48 -2l-47 3q-64 11 -64 82q0 15 5 26l16 25q22 24 53 24q30 0 45 -19l10 -21l4 -26q0 -12 -2 -18l-3 -18l-6 -18l-6 -16l17 -2l13 3l27 11l18 6l19 2l22 -19l-23 -18l-16 -16l-11 -16l-3 -15q0 -20 17 -30
l17 -10l19 -2q38 0 76.5 44.5t50.5 81.5l-7 -2l-9 -1l-23 2l-26 6q-7 1 -25 8l-17 9q-28 15 -39 26l-27 28q-27 34 -27 73q0 47 33.5 75.5t70.5 28.5l96 1v63h-400l-23 53h547l22 -53h-105zM164 182l-9 13l-13 7q-6 3 -14 3l-14 -3q-5 -1 -11 -7l-7 -12l-2 -17l1 -19l6 -17
l10 -11l14 -4q20 0 31 16l8 16l3 19z" />
    <glyph glyph-name="asterisk" unicode="*" horiz-adv-x="239" 
d="M206 525q-4 -11 -21 -29l-32 -34l-35 -32v32l43 54v31l-28 42l39 42q42 -36 42 -85q0 -7 -8 -21z" />
    <glyph glyph-name="plus" unicode="+" horiz-adv-x="6" 
d="M-194 -106l-42 42l42 42l43 -42z" />
    <glyph glyph-name="comma" unicode="," horiz-adv-x="394" 
d="M425 -69l-1 -6l-3 -4l-4 -5l-20 -22l-31 31l2 7l6 16l1 5l-2 7l-3 6l-6 6l-10 6l-221 138q-26 16 -47 33q-14 15 -16 28v264h-64l-20 53h411l20 -53h-94v-252q-1 -7 -2 -9l-4 -7l-7 -6l-8 -1l-74 1l-31 31h58l8 6l5 7l2 8v222h-147v-252q0 -18 7 -31t24 -23l248 -158
l13 -14l8 -14q3 -5 3 -14z" />
    <glyph glyph-name="hyphen" unicode="-" horiz-adv-x="208" 
d="M161 10l-43 41l43 43l42 -43z" />
    <glyph glyph-name="hyphen" unicode="&#x2010;" horiz-adv-x="208" 
d="M161 10l-43 41l43 43l42 -43z" />
    <glyph glyph-name="period" unicode="." horiz-adv-x="284" 
d="M261 441v-210q0 -38 -26 -62q-18 -14 -45 -19q-5 -1 -17 -1q-70 0 -104 53q-8 19 -8 38v201h-53l-21 53h367v-53h-93zM218 441h-115v-231l3 -14l10 -11l16 -6l22 -2q26 0 44 16q16 13 20 37v211z" />
    <glyph glyph-name="slash" unicode="/" horiz-adv-x="231" 
d="M225 441l-22 53h107v-53h-85zM283 146l-33 -17l-35 -11l-32 -3q-34 0 -79 36q-24 18 -37 35q-9 15 -11 33l3 24q3 14 11 23l17 20q8 9 23 18l-45 24q-33 22 -49 58q-6 18 -6 41q0 43 50 61q13 3 27 5q33 0 59 -20t26 -54q0 -9 -7 -22l-18 -23q-6 -6 -12 -11q-2 -2 -13 -9
l-25 -11l21 -18h96l32 -63l-30 7l-34 3q-42 0 -61 -15q-23 -11 -23 -48q0 -48 35 -59l28 -4l19 1l20 4l18 7l20 10q39 20 72 62v-63q-15 -15 -27 -21zM137 434l-8 14q-5 6 -13 9l-18 4q-30 0 -41 -38l-2 -24l1 -18l6 -14q2 -6 10 -9l15 -3q21 0 36 18q8 9 13 21l4 23z" />
    <glyph glyph-name="zero" unicode="0" horiz-adv-x="447" 
d="M306 147q-20 -22 -40 -33q-23 -10 -43 -10q-60 0 -92 39q-18 22 -26 44.5t-8 52.5q0 43 21 78q23 39 59 59q21 11 46 11q30 0 49 -8q50 -16 68 -64q9 -24 9 -55q0 -67 -43 -114zM253 345q-16 10 -30 10q-43 0 -68 -25q-9 -11 -15.5 -28.5t-6.5 -34.5q0 -71 53 -108
q15 -8 37 -13h21q73 0 73 84q0 73 -64 115z" />
    <glyph glyph-name="one" unicode="1" horiz-adv-x="370" 
d="M265 -61l-6 -12l-9 -8q-3 -3 -9 -3q-37 0 -54 31q11 0 15 2l13 6q6 3 9 9q3 3 3 9l-2 8l-7 8l-177 178l93 107q-13 0 -28 7l-37 25q-22 18 -36.5 40.5t-14.5 41.5q0 40 30 66q23 20 55 26q10 2 22 2q27 0 61 -37q39 -44 39 -98v-13l-1 -4v-4l-3 -9l-3 -13l-124 -157
l164 -166l5 -10l3 -9l1 -9q0 -10 -2 -14zM170 426l-20 10l-25 4q-20 0 -38 -24l-11 -25l-4 -25v-16q2 -10 16 -34q8 -10 20.5 -16.5t25.5 -6.5q19 0 34 30l14 28q3 10 5 26q0 19 -4 30t-13 19z" />
    <glyph glyph-name="two" unicode="2" horiz-adv-x="447" 
d="M349 -75l-126 222l-16 -2h-16l-13 5t-25 14q-25 21 -25 45v19l2 14l8 15l10 12l11 4q16 0 25 -15l7 -16l11 -23l21 -2q41 0 70 35q26 30 33 74q2 12 2 29q0 24 -7 39q-10 28 -49 40q-23 6 -46 6q-12 0 -29 -2l-25 -3l-26 -7l-29 -9l-31 32l19 14l27 11l30 6l34 2l27 -1
q62 -2 102 -54q25 -32 32 -75q2 -12 2 -30q0 -28 -8 -51q-20 -59 -82 -102q-10 -7 -25 -16l115 -208z" />
    <glyph glyph-name="three" unicode="3" horiz-adv-x="447" 
d="M336 104.5q-19 -20.5 -36 -32.5l-46 -22l74 -103l-22 -11l-83 115l-34 3q-35 8 -52 34q-9 12 -9 27q0 10 2 14l6 13l10 9l13 4q8 0 15.5 -3.5t19.5 -13.5l17 -18l12 -16l15 -1q33 -2 62 27q14 14 20 27.5t8 30.5q0 19 -5 32q-6 26 -31 36q-9 3 -26 5l-127 1l-22 54h106
l31 3q50 17 52 58q1 25 -18 39q-12 8 -27 10l-38 4l-117 1l-31 52h138q19 0 43.5 -11.5t41.5 -30.5q38 -41 38 -88l-3 -21q-1 -9 -7 -19q-2 -7 -12 -17q-5 -7 -17 -14l26 -20l22 -23q24 -25 25 -51q1 -24 -7 -43.5t-27 -40z" />
    <glyph glyph-name="four" unicode="4" horiz-adv-x="447" 
d="M270 256l79 -67l14 -17l10 -17l7 -19l2 -21q0 -14 -9 -29q-20 -26 -64 -41q-22 -5 -43 -5q-74 0 -109 64q-9 24 -8 42l1 15q1 10 4 18l7 17l9 13l53 60l-210 182l10 23l215 -190l175 199l20 -42zM333 158l-3 12l-5 9l-8 9l-63 53l-52 -63l-6 -10l-4 -13l-2 -15v-16
q4 -25 19 -38l19 -10q11 -3 26 -3t23 2l23 6q11 3 18 9l10 13l4 17l2 20z" />
    <glyph glyph-name="five" unicode="5" horiz-adv-x="431" 
d="M370 -64l-84 242q-6 -9 -17 -15l-20 -10l-12 -4l-11 -1q-8 0 -12 -2h-12q-70 0 -108 48q-21 26 -30.5 51t-9.5 59v22l2 35l7 42l10 41l13 38l42 -41l-14 -40l-10 -38l-6 -39l-1 -42q-2 -71 46 -97q18 -8 39 -8h14q7 0 19 2l22 7q13 8 17 33l-6 18l-2 18q0 12 2 18l7 16
l9 11l11 4q12 0 18.5 -4t12.5 -13l7 -19l3 -22l-3 -27q-1 -10 -7 -22l84 -241z" />
    <glyph glyph-name="six" unicode="6" horiz-adv-x="447" 
d="M370 -64l-64 126l-24 -1q-74 -3 -133 42q-32 24 -47.5 51.5t-15.5 64.5q0 17 2 22l7 19q10 19 33 33q-33 17 -52 50l-17 30l-5 24q0 17 7 31q11 29 51 47q21 7 37 7l117 1l51 -52h-158q-12 0 -21 -4t-17 -12l-11 -17l-4 -21q0 -35 20 -51q7 -6 18 -9l26 -2l116 1l31 -54
h-127q-16 -6 -24 -14q-12 -7 -26 -30q-3 -4 -8 -15l-4 -26q0 -30 31 -58t64 -26l21 1q12 2 15 5l8 7q3 5 3 11l-1 8l-2 7l-3 5l-1 5l-1 4v7q0 18 10 22l10 4l9 2q23 0 40 -23q15 -19 18 -49l-2 -13l-3 -10l-6 -8l-10 -5l62 -126z" />
    <glyph glyph-name="seven" unicode="7" horiz-adv-x="447" 
d="M405 178q-17 -85 -69 -118q-31 -20 -70 -20q-102 0 -172 148q-61 130 -61 273q0 24 11 24q10 -7 10 -24q0 -104 27 -183q8 -23 23 -55q62 -130 162 -130q59 0 89.5 43t30.5 104q-11 -8 -27 -14.5t-32 -6.5q-58 0 -91 51q-8 12 -13 34l-6 27l-1 25q-1 34 18 49l22 10l30 4
q61 0 94 -51q24 -37 31 -81q2 -14 2 -34q0 -34 -8 -75zM359 366q-13 22 -44 22q-45 0 -66 -43q-5 -13 -5 -30q0 -25 19 -44q16 -17 43 -21q60 0 68 65q0 14 -3.5 27.5t-11.5 23.5z" />
    <glyph glyph-name="eight" unicode="8" horiz-adv-x="447" 
d="M324 33q-57 -38 -91 -35l-35 3q-14 1 -34 10l-31 17q-12 8 -27 22l-21 25l-15 24l-9 22l-3 20l1 13q1 8 2 10l5 11l9 13l242 295l22 -42l-242 -301l-2 -15q0 -18 9 -33q24 -41 78 -52q10 -2 22 -2h11l8 2q42 11 70 31q34 25 66 64l31 -30q-12 -37 -66 -72z" />
    <glyph glyph-name="nine" unicode="9" horiz-adv-x="462" 
d="M376 -45l-18 -11l-16 -4q-14 0 -21 9l-6 12l-2 17q9 0 13 2l8 7l5 9l2 11l-2 13q0 7 -4 16l-6 14l-6 11l-231 264l-5 14l-4 13l-1 14q-1 20 9 42q19 40 71 64q22 10 44 10q48 0 87.5 -31.5t39.5 -84.5q0 -50 -53 -88t-94 -38l189 -189l8 -12l7 -14l5 -18l2 -18
q-2 -11 -7 -19t-14 -15zM279 407q-4 37 -40 43q-51 0 -78.5 -33.5t-27.5 -81.5q0 -10 2 -16l7 -13l11 -10l13 -3q46 0 81 22.5t35 61.5z" />
    <glyph glyph-name="colon" unicode=":" horiz-adv-x="510" 
d="M177 441v-116l16 -12l17 -4l17 3q6 2 21 11l41 24q13 6 25 8q46 0 91 -49q47 -52 98 -191l-20 1q-51 117 -84.5 152.5t-84.5 35.5q-25 0 -43 -18q-10 -10 -15 -23l-4 -21l3 -18q3 -7 10 -14l15 -10q9 -3 23 -3l7 1l14 5l13 4l9 2l21 -42q-3 -5 -11 -9l-17 -6l-19 -5
l-17 -1q-27 -2 -52 34q-21 28 -22 63q-1 9 -1 15v14q0 7 2 10h-27l-13 1l-3 1l-3 2l-4 3l-3 4q0 -46 -25 -77l-21 -17l-28 -11l312 -241l-28 -13l-293 233q-9 7 -24 25q-13 15 -20 26q-14 23 -14 42l4 9l6 8l7 5l10 2q7 0 18 -6l22 -17l9 -3q22 0 22 46v137h-124l-23 53h527
l20 -53h-357z" />
    <glyph glyph-name="semicolon" unicode=";" horiz-adv-x="435" 
d="M510 -30l-146 99l-22 23l-14 22l-4 21v51q-9 -10 -22 -19l-26 -12l-28 -8l-27 -2q-57 -4 -112 42q-50 42 -50 106l72 30q33 19 33 54q0 16 -2 22l-6 17q-2 6 -10 14q-4 6 -13 10l-127 1l-22 53h456l22 -53h-96v-305q0 -17 2 -23l7 -21l11 -19q5 -8 16 -15l124 -92z
M324 441h-160l22 -27l17 -26l6 -14l4 -12l3 -14l1 -13q1 -8 -11 -19l-26 -25l-35 -24l-34 -17v-12q0 -19 16 -39q13 -18 48 -22q58 0 117 35q18 11 32 25v204z" />
    <glyph glyph-name="less" unicode="&#x3c;" horiz-adv-x="386" 
d="M318 441v-125h-157q-63 0 -79 -51q-5 -16 -5 -46q0 -67 31 -106q27 -33 81 -45l-2 10l-2 23q0 10 -2 25l-1 19l3 37q10 58 69 58q27 0 46 -8q38 -18 54 -57q7 -20 7 -40q0 -61 -34 -90q-10 -8 -33 -20q-18 -6 -40 -6q-88 0 -153 71q-35 38 -51 79t-16 92q0 37 28 63
q25 23 67 29q12 2 32 2l116 1v85h-274l-21 53h410l21 -53h-95zM277 188q-55 0 -67 -49l-4 -34l1 -22l3 -18l11 -3l14 -1q34 -2 71 22q29 20 33 52q0 53 -62 53z" />
    <glyph glyph-name="equal" unicode="=" horiz-adv-x="343" 
d="M420 -33l-150 103l-22 22q-6 6 -14 22l-4 21v52l-155 -104l-31 33l186 123v26l-24 18l-31 16q-14 7 -32 12l-30 4q-37 0 -59 -22l-31 43l12 7l17 7l23 3l31 2q16 1 33 -5q34 -5 68 -31q13 -11 23 -23v145h-228l-16 53h365l17 -53h-95v-304q4 -24 12 -45q1 -5 4 -9l9 -14
l11 -11l129 -87z" />
    <glyph glyph-name="greater" unicode="&#x3e;" horiz-adv-x="486" 
d="M554 -36l-151 105l-22 23l-14 22l-4 21v83q-8 -6 -28 -11l-42 -3l-19 1q-11 1 -15 4q23 -26 23 -63t-34 -67q-26 -23 -55 -32q-7 -2 -27 -7l208 -91l-20 -9l-212 93l-17 -1l-12 1q-4 0 -11 2l-10 5q-10 5 -16 11l-12 15l-8 18l-2 19q0 32 28 32q9 0 16.5 -4t13.5 -14
l22 -35l9 -4l12 -1q25 -2 61 24q17 12 26 25q6 12 8 29q0 41 -16 50q-6 3 -12 3l-14 -3l-23 -7l-23 -8l-16 -2q-11 0 -21 5l-24 16l-23 23l-16 25l-9 26l-3 26q0 47 42 63q15 5 31 5l95 1v63h-210l-21 53h492l20 -53h-93l2 -328l7 -22l11 -20q6 -7 16 -13l121 -91zM363 441
h-102v-105h-138q-29 0 -38 -33l-3 -21q0 -24 18 -38l21 -11l25 -3l10 2l13 2h6l5 1h5l22 -1l31 -3q20 0 28 -2l16 -1l23 1q15 2 21 5l19 9q10 7 18 16v182z" />
    <glyph glyph-name="question" unicode="?" horiz-adv-x="231" 
d="M283 165q-10 -8 -30 -16l-40 -11l-46 -3q-34 -2 -73 32q-21 17 -32 39t-11 44q0 12 5 20q2 9 11 17l16 14l20 12l-27 22l-19 25q-6 9 -15 29l-4 30l3 22h-31l-23 53h316v-53h-178q-22 0 -32 -16l-8 -17l-2 -20q0 -22 11 -35.5t34 -21.5l40 -8q14 -2 42 -8l20 -53l-13 6
l-21 7l-23 5l-17 2q-27 0 -50 -19t-23 -44q0 -39 45 -60l28 -4q19 0 38 8q26 11 65 38q29 19 44 39v-51q-6 -15 -20 -24z" />
    <glyph glyph-name="at" unicode="@" horiz-adv-x="493" 
d="M195 -2h-33l233 538h32z" />
    <glyph glyph-name="A" unicode="A" horiz-adv-x="340" 
d="M185 136q0 -17 2 -23l7 -22l11 -19l16 -14l121 -91l-6 1l-125 81l-29 21l-22 22q-6 6 -14 22l-4 21v306h43v-305z" />
    <glyph glyph-name="B" unicode="B" horiz-adv-x="402" 
d="M302 441q7 -4 13 -13l10 -19l3 -11l3 -10l1 -12l1 -10q0 -23 -16 -52l-11 -20l-4 -9q1 -5 2 -6l9 -6q18 -12 27 -23q27 -25 40 -62q6 -17 6 -33q0 -63 -41 -98q-44 -38 -106 -38q-53 0 -113 49q-55 44 -67 98l-2 30q-2 31 20 59q19 24 59 36l61 12l62 13l7 4l11 14l9 19
l3 24q0 63 -50 63l-233 1l-20 53h420l22 -53h-126zM292 256q-20 5 -43 5q-42 0 -60 -5q-58 -5 -86 -40q-13 -17 -13 -39q0 -48 24 -76t92 -28q70 0 97 15q41 23 41 78q0 75 -52 90z" />
    <glyph glyph-name="C" unicode="C" horiz-adv-x="216" 
d="M10 441l-23 53h307v-53h-284zM271 154l-28 -17l-33 -10l-34 -3q-59 0 -93 29q-42 29 -42 87q0 80 91 117q22 9 45 9q15 0 32 -6q12 -5 35 -21q20 -14 30 -28q9 -9 20 -29v-104q-11 -17 -23 -24zM256 309q-24 24 -60 24q-16 0 -29 -4t-21 -14l84 -137q18 2 37 27l12 22
l4 23q0 18 -6.5 33t-20.5 26zM125 305q-13 -5 -21 -13t-17 -21l-11 -25l-4 -27q0 -49 47 -65l30 -4l15 1l16 3l15 5l15 7z" />
    <glyph glyph-name="D" unicode="D" horiz-adv-x="379" 
d="M255 266q-55 49 -101 49q-37 0 -59 -22q-25 -18 -25 -53q0 -52 40 -70l29 -4l15 1q11 1 16 2l15 4l15 6l29 15l26 21v51zM298 441v-177l23 24l26 19q18 13 54 17l15 -39q-23 0 -49 -19q-6 -4 -16 -13l-30 -33l-23 -38v-65q0 -15 2 -23l7 -20l11 -19l16 -16l124 -93l-10 4
l-152 100l-22 23l-14 23l-4 21v48l-12 -8l-12 -6l-13 -5l-12 -4l-28 -6l-35 -1q-34 -1 -60 21.5t-36 55.5q-7 24 -7 45q0 41 24.5 69.5t67.5 28.5q50 0 82 -22q11 -6 21 -19q10 -9 20 -26v153h-250l-20 53h461l22 -53h-171z" />
    <glyph glyph-name="E" unicode="E" horiz-adv-x="223" 
d="M134 210v-54q0 -10 -4 -15l-9 -4q-6 0 -13 4l-14 14l-44 53q-7 5 -9 11l-2 14q0 13 22 17l33 1v190h-84l-23 53h307v-53h-160v-190h169v-41h-169z" />
    <glyph glyph-name="F" unicode="F" horiz-adv-x="250" 
d="M234 441l-23 53h91v-53h-68zM246 139l-32 -10l-32 -3q-28 0 -51 7q-49 15 -87 59q-15 21 -27 48q21 5 34 11l29 13q16 7 30 18l23 22q-47 0 -87 30t-40 63q0 69 54 89q19 7 42 7q54 0 83 -31q23 -24 30 -60q2 -10 2 -25q0 -22 -13 -46q-18 -32 -44 -54l-44 -38
q-12 -8 -36 -20q3 -16 10 -27l19 -20q10 -8 25 -13l30 -4q33 0 68 19q32 17 49 34l21 22v-52l-9 -9q-22 -22 -47 -30zM171 422q-3 19 -11 27q-5 13 -15.5 18.5t-22.5 5.5q-44 -7 -57 -44q-6 -15 -6 -32q0 -22 27 -45l27 -23q11 -7 28 -14l14 20l8 12l5 10l4 11l2 10l1 10
q0 21 -4 34z" />
    <glyph glyph-name="G" unicode="G" horiz-adv-x="533" 
d="M449 441v-115q44 -18 61 -64q9 -25 11 -41q1 -8 1 -23q0 -60 -30 -101q-28 -47 -86 -47q-60 0 -101 51q-9 16 -15 34q-9 -22 -20 -35q-28 -34 -59 -44q-19 -6 -36 -6q-50 0 -85 40q-31 36 -39 88q-2 13 -2 31q0 52 40 82q30 23 67 29q11 2 26 2q24 0 37 -5q34 -5 59 -35
q11 -14 19 -34l18 34l24 28q18 20 56 25v106h-389l-22 53h549l20 -53h-104zM487 253q-4 28 -27 36l-34 4q-37 0 -74 -47q-19 -24 -29.5 -42.5t-20.5 -48.5q0 -10 5 -19l16 -16q11 -8 23 -12l29 -4q50 0 81 24q37 30 34 81zM244 274l-26 6l-34 2q-36 2 -68 -36
q-10 -16 -18.5 -38.5t-8.5 -41.5v-12q0 -21 16 -43q8 -12 20 -19l28 -10h13q40 0 74 49l16 32l30 66q-6 30 -42 45z" />
    <glyph glyph-name="H" unicode="H" horiz-adv-x="260" 
d="M225 441l-31 53h124v-53h-93zM172 210v-54q0 -7 -2 -10l-7 -2h-6l-4 2l-6 4l-6 5l-54 55l-11 15l-4 12q0 6 4 9l11 4l43 1v65q-32 0 -68.5 18.5t-50.5 46.5q-8 16 -8 38q0 28 25.5 51t48.5 23q26 0 50 -19t37 -45q6 -14 8 -32v-146h146v-41h-146zM130 420q0 18 -8 23
l-13 5l-22 2q-18 0 -25 -13l-5 -17l-1 -23q-2 -42 47 -63l27 -4v90z" />
    <glyph glyph-name="I" unicode="I" horiz-adv-x="184" 
d="M200 163q-48 0 -89 41.5t-41 88.5v148h-64l-20 53h273v-53h-146v-179q0 -25 19 -44q16 -17 43 -21l17 3l25 9l19 9l23 12v-41q-22 -26 -59 -26z" />
    <glyph glyph-name="J" unicode="J" horiz-adv-x="407" 
d="M490 -33l-150 102l-22 23l-14 22l-4 21v51l-206 -155l-33 31l211 158v21l-11 -1l-10 2q-7 0 -12 2l-10 4l-21 10l-47 24l-35 -28l-38 -25l-39 -23l-39 -18l-33 32l48 24l18 10l41 25l34 25l-42 24l-29 24q-25 20 -29 57q0 18 13 38q28 46 83 46q23 0 42 -11
q40 -18 65 -63q9 -16 9 -31q0 -23 -14 -43q-5 -10 -17 -24l-21 -24l122 -46v190h-59l-23 53h198l22 -53h-96v-305q0 -17 2 -23l7 -22l11 -19l16 -14l122 -91h-10zM134 461q-41 0 -58 -36l-4 -28q0 -13 5 -23l13 -19l20 -20l28 -18l20 22l16 24l9 22l4 24q0 52 -53 52z" />
    <glyph glyph-name="K" unicode="K" horiz-adv-x="401" 
d="M498 -33l-150 102l-22 23l-14 22l-4 21v181h-196l38 -30q77 -61 77 -109q0 -29 -24 -58q-21 -24 -51 -39q-14 -5 -31 -7l106 -117l-10 -20l-127 138l-9 -1q-7 1 -9 2l-10 2l-9 4l-17 9l-9 13l-6 14l-1 16q-1 22 17 22q28 0 42 -31l11 -4l10 -1q25 0 49.5 22.5t24.5 46.5
q0 33 -35 72q-17 19 -38.5 33.5t-42.5 21.5l-23 8l-15 9l-9 10l-2 10q0 6 5 10l15 4l279 1v74h-302l-22 53h440l22 -53h-96v-305q0 -17 2 -23l7 -22l11 -19l16 -14l122 -91h-10z" />
    <glyph glyph-name="L" unicode="L" horiz-adv-x="277" 
d="M346 204l-15 -4q-13 0 -21 -2l-26 -1h-17q-7 2 -18 4q-14 3 -34 15l-15 9l-12 10l-9 9l-5 9q-3 -12 -12 -26q-5 -10 -18 -19l-18 -12l-21 -8l169 -178l-21 -12l-158 169q-25 27 -43 52q-14 25 -14 41l4 9l6 8l7 5l10 2q7 0 18 -6l26 -20l5 -1q24 0 24 47v137h-127l-22 53
h369v-53h-178v-147l-2 -11q5 -22 27 -34l21 -8l26 -2q11 -1 26 2l31 6l20 5l29 9v-51z" />
    <glyph glyph-name="M" unicode="M" horiz-adv-x="423" 
d="M344 441v-105h-178l-19 -7q-16 -6 -22 -26l-2 -21q0 -10 4 -18l15 -13q9 -6 21 -9l23 -2l19 3l22 1q27 1 57 -8q55 -17 85 -56q12 -15 17 -34l1 -13q1 -19 -8 -40q-32 -74 -120 -74q-59 0 -131 55q-52 40 -79 75l-21 28l-4 10l2 8q3 3 8 3l7 -3l8 -7q30 -47 67 -73
q21 -15 43 -25q8 -4 31 -11t50 -7l19 2l32 3q34 7 46 31q5 11 7 27q0 34 -16 48q-5 6 -19 10l-26 4l-36 -2l-44 -6l-17 -1q-9 -1 -19 5l-22 15l-25 24l-18 29l-11 28l-4 27q0 29 18 45t49 16l148 1v63h-296l-20 53h442l21 -53h-105z" />
    <glyph glyph-name="N" unicode="N" horiz-adv-x="480" 
d="M386 441v-67q38 -16 55 -54q13 -29 17 -57q1 -8 1 -23q0 -92 -74 -160q-67 -61 -146 -61q-28 0 -53.5 6t-50.5 21q-45 26 -53 69l3 21l9 20l13 17l16 15q-14 3 -31 12q-30 23 -47 51q-6 15 -6 31q0 37 30 60.5t69 23.5q19 0 33 -4.5t26 -15.5v-30l-28 5l-24 2
q-15 1 -31 -5q-29 -7 -39 -32q-5 -12 -5 -25q0 -19 22 -37l23 -11l26 -3q12 0 18 2l16 7l53 1l21 -53h-63q-63 0 -63 -63q0 -11 7 -22l24 -21l29 -16q9 -3 23 -5q31 0 54 8q76 26 132 107q-23 9 -48 24q-9 5 -15 10q-42 31 -60 59q-8 17 -10 34q0 52 65 87q5 3 20 8v64h-338
l-20 53h496l20 -53h-116zM423 299q-6 29 -27 40q-13 7 -30 7q-53 0 -53 -64q0 -71 54 -98q19 -7 38 -7l8 19l7 22l4 25l2 26z" />
    <glyph glyph-name="O" unicode="O" horiz-adv-x="223" 
d="M10 441l-23 53h316v-53h-293zM276 156l-32 -17l-35 -11l-32 -4q-55 0 -95.5 41t-40.5 96q0 40 31 69t74 36l24 4q36 0 76 -21q37 -19 57 -56v-19l-41 24l-32 15l-28 8l-25 3q-57 0 -87 -51q-7 -18 -7 -33q0 -26 10 -56q14 -17 27 -23q9 -4 26 -6q35 0 79 24l40 27l38 34
v-62z" />
    <glyph glyph-name="P" unicode="P" horiz-adv-x="269" 
d="M8 441l-21 53h367v-53h-346zM334 165q-10 -8 -30 -16l-40 -11l-46 -3l-20 2q-8 2 -19 7l-20 10l-20 16q-16 16 -27.5 36.5t-11.5 38.5q0 25 23 48l-62 1l-22 42h231l22 -42h-84l-12 -3q-6 0 -12 -4l-13 -9q-7 -3 -12 -10q-25 -25 -25 -49q0 -39 45 -60l29 -4q19 0 38 8
q26 11 65 38q31 21 43 39v-51q-6 -15 -20 -24z" />
    <glyph glyph-name="Q" unicode="Q" horiz-adv-x="519" 
d="M298 441v-186l24 28l22 21q21 16 55 20q36 0 68 -53q12 -20 19.5 -47.5t7.5 -46.5q0 -31 -15 -59q-7 -20 -26 -45q-3 -4 -11 -12l-32 45l11 14l10 16l9 15l8 15l11 28l4 25q0 29 -15 43q-9 16 -38 20q-15 0 -32 -7.5t-30 -21.5l-29 -32q-11 -12 -21 -37v-67q0 -15 2 -23
l7 -20l11 -19l16 -16l124 -93l-10 4l-123 80q-70 46 -70 87v68q-11 -9 -26 -17q-10 -3 -29 -5q-48 0 -89 41.5t-41 88.5v148h-64l-20 53h529l25 -53h-242zM255 441h-142v-179q0 -25 19 -44q16 -17 43 -21l20 4l30 12l13 7l17 8v213z" />
    <glyph glyph-name="R" unicode="R" horiz-adv-x="242" 
d="M11 441l-21 53h294v-53h-273zM169 305q-16 0 -31 -6q-28 -9 -37 -30q-4 -10 -6 -29q0 -51 15 -90q16 -42 41 -81l39 -50l-21 1l-38 54l-37 56q-21 31 -31 62.5t-10 55.5q0 47 31.5 72.5t74.5 25.5l125 1v-42h-115z" />
    <glyph glyph-name="S" unicode="S" horiz-adv-x="6" 
d="M-112 494l-30 35q-15 14 -35 26l-33 16q-14 7 -28 6l-40 -2l-45 56l3 8l7 7l10 5l14 2l12 -1l8 -2q39 -10 91 -62l39 -39l28 -34l-10 34l-10 36l-15 33l-19 32l-9 12l-9 7l-10 3l-12 2l-10 -2l-12 -3l-23 74q0 15 13 19q6 0 13 -4l15 -9l17 -16l17 -22l26 -45l23 -49
q17 -35 24 -64.5t11 -59.5z" />
    <glyph glyph-name="T" unicode="T" horiz-adv-x="308" 
d="M8 441l-21 53h410v-53h-389zM230 305l31 -37l23 -32l8 -15l6 -14l3 -15l2 -15q0 -18 -8.5 -37t-31.5 -33q-5 -3 -15.5 -7.5t-29.5 -6.5q-44 0 -103 60q-34 34 -50.5 65t-25.5 75l1 11l6 4q6 -2 8 -4l7 -11q22 -70 63 -109q18 -18 36.5 -28t36.5 -10q31 0 47 19
q14 16 17 44q0 23 -32.5 61t-94.5 76l263 1v-42h-167z" />
    <glyph glyph-name="U" unicode="U" horiz-adv-x="184" 
d="M6 441l-20 53h273v-53h-253zM123 241v-52q0 -21 -12 -24l-9 3l-12 9l-41 54q-7 9 -9 14l-3 13q0 24 33 24l189 1v-42h-136z" />
    <glyph glyph-name="V" unicode="V" horiz-adv-x="354" 
d="M277 441v-190h-107q-46 0 -79 -37q-25 -28 -25 -66q0 -11 9 -23q8 -8 29 -20l35 -15l31 -5h31q9 2 13 2l37 7q17 3 50 22q7 4 16 11l22 -41q-23 -23 -58 -32l-36 -9l-36 -2q-63 -4 -114 30t-51 96q0 43 32.5 83.5t73.5 40.5l84 1v147h-231l-21 53h400l21 -53h-126z" />
    <glyph glyph-name="W" unicode="W" horiz-adv-x="6" 
d="M9 599l-33 -28l-38 -20q-18 -6 -34 -6q-33 0 -70 31q-22 18 -44 51q-5 7 -12 23l3 7q5 3 7 3l11 -15q3 -4 12 -12l24 -21l35 -20q17 -6 34 -6q10 0 23 5l27 17q32 24 45 52l31 -30q-7 -19 -21 -31z" />
    <glyph glyph-name="X" unicode="X" horiz-adv-x="223" 
d="M167 441v-243q0 -36 -18 -36q-12 0 -24 15l-61 74l-2 10q0 12 21 12l42 1v167h-115l-23 53h316v-53h-136z" />
    <glyph glyph-name="Y" unicode="Y" horiz-adv-x="323" 
d="M3 441l-21 53h421v-53h-400zM386 296l-14 2q-29 0 -50.5 -16.5t-39.5 -45.5l-16 -39l-43 13l3 10l5 13l7 14l8 14q-3 14 -13 24l-21 17q-16 7 -26 9l-25 4q-52 0 -67 -55q-7 -24 -7 -51q0 -23 11 -44q15 -29 36 -51l37 -39l42 -35q17 -10 26 -19t9 -14l-2 -4l-3 -3l-5 -1
l-4 -1l-5 2l-3 1l-7 4l-6 4q-35 24 -76 64q-62 61 -81 115q-10 29 -10 52q0 83 54 107q18 8 39 8q10 0 15 -2l16 -3l15 -7l15 -8q9 -5 31 -24q12 -12 25 -30l18 20l23 17l14 7l14 6l13 3l14 1q23 2 51 -20v-21q-11 0 -17 2z" />
    <glyph glyph-name="Z" unicode="Z" horiz-adv-x="4" 
d="M-5 631l-19 17l-20 9l-19 4q-13 0 -21 -3t-17 -13q-7 -6 -11 -20l-4 -28q0 -30 8 -54t25 -50l-23 1q-3 2 -11 15l-14 31l-11 33l-6 24l-2 25q-3 36 20 66q22 27 56 27q27 0 50 -23l17 -21l17 -31v-30q-7 14 -15 21z" />
    <glyph glyph-name="bracketleft" unicode="[" horiz-adv-x="386" 
d="M452 171l-24 -12l-26 -8l-26 -2q-25 -2 -53 9q-49 19 -72 63q-10 27 -10 52q0 61 74 86q21 7 41 7h20q8 -3 14 -4l34 -9q15 -4 29 -17q12 -9 21 -21v-32q-53 32 -107 32q-32 0 -56 -18q-28 -21 -28 -47q0 -43 41 -68q8 -3 23 -5q20 0 47 10q18 6 51 28l29 25v-51
q-10 -12 -22 -18zM493 -62l-218 81q-72 27 -141 97q-72 73 -93 145q0 14 21 17l9 -1l11 -3l6 -3q5 -1 6 -2l5 -4l6 -4l9 3l11 11l8 14l3 15v137h-126l-21 53h485v-53h-296v-159q-2 -12 -9 -36q-4 -14 -33 -48q-6 -7 -20 -21q9 -15 28 -34q16 -13 48 -35l61 -35l42 -26
l42 -22l162 -67z" />
    <glyph glyph-name="backslash" unicode="\" horiz-adv-x="410" 
d="M362 352q-13 -27 -26 -45l-36 -48l-27 -32l-55 -61l-31 32q50 50 86 94l21 28q52 73 52 130q0 46 -32 75t-73 29q-13 0 -21 -2l-19 -5q-8 -2 -18 -10l-16 -13l-33 32q8 18 43 35q30 14 64 18q44 0 83 -28q36 -26 53 -75q10 -29 10 -56q0 -15 -1 -23q-4 -32 -24 -75z
M230 10l-43 41l43 43l42 -43z" />
    <glyph glyph-name="bracketright" unicode="]" horiz-adv-x="302" 
d="M270 -10q-8 -15 -22 -30l-31 -33l-34 -33v31l43 53v32l-29 41l39 43q42 -36 42 -85q0 -7 -8 -19z" />
    <glyph glyph-name="asciicircum" unicode="^" horiz-adv-x="223" 
d="M161 547v-31l29 -42l-39 -43q-41 29 -41 84q0 15 28 47l30 34l35 34v-32z" />
    <glyph glyph-name="underscore" unicode="_" horiz-adv-x="530" 
d="M223 132v50l-148 -99l-31 33l179 118v37l-24 15l-28 15l-30 10l-28 4q-37 0 -59 -22l-31 43l12 7l17 7l23 3l31 2h18q5 -2 13 -4l32 -10q10 -3 28 -17l26 -20v137h-221l-20 53h557l25 -53h-298v-159q18 5 30 13l22 18q24 24 24 60q0 28 20 28q9 0 12 -2l10 -6l32 -19
l10 -10l4 -8q0 -7 -5 -13l-14 -14l-11 -8l-19 -13q0 -12 2 -17l6 -14l14 -15l23 -16l28 -38q-27 0 -44 -6q-26 -3 -45 -19q-23 -17 -23 -41q0 -8 4 -16l14 -13l9 -6l9 -4l8 -2l9 -1l19 1q11 1 19 4l21 6l26 9l23 -38q-10 -7 -28 -14l-31 -4q-51 0 -92 27t-41 71q0 26 19 45
q10 13 22 18l30 14q-22 12 -31 53l-14 -8l-15 -11l-56 -44v-97h-43zM227 110l14 -22l22 -23l29 -21l121 -81h10l-121 92q-9 4 -16 13l-11 19l-7 22l-2 22l-43 1q0 -11 4 -22z" />
    <glyph glyph-name="grave" unicode="`" horiz-adv-x="6" 
d="M51 -155l-13 -4l-17 -2l-23 -1q-43 -2 -85 23.5t-42 70.5q0 38 37 63q42 21 81 21l30 -42q-26 0 -44 -3t-42 -14q-29 -13 -29 -45q0 -6 5 -14q2 -5 13 -14l18 -10l16 -4l21 2q8 0 12 2l10 3l22 9l18 6l22 -42z" />
    <glyph glyph-name="a" unicode="a" horiz-adv-x="3" 
d="M-54 558l-42 42l42 42l40 -42z" />
    <glyph glyph-name="b" unicode="b" horiz-adv-x="317" 
d="M326 -60l-188 93l-17 -1l-12 1l-11 2l-11 5l-17 12l-12 16l-9 18l-2 19l1 11l6 10q3 4 10 7l13 2l8 2q16 0 29 -20l12 -19l4 -16l8 -4l12 -1q26 -2 61 23t35 55q0 20 -9 29l-11 6l-16 2l-12 -1l-19 -1q-8 0 -21 -2h-17q-9 0 -19 5l-22 15q-4 3 -12 10q-4 3 -14 14l-18 28
l-11 28l-3 27q0 61 68 62l104 1v63h-211l-20 53h335l23 -53h-85v-105h-138q-10 -2 -16 -8l-13 -13q-6 -8 -9 -17l-3 -16l3 -18q7 -16 28 -23l19 -3l14 3l27 3q44 0 86 -37q29 -25 33 -52q0 -62 -76 -104l-44 -16l180 -86z" />
    <glyph glyph-name="c" unicode="c" horiz-adv-x="400" 
d="M481 -33l-150 102l-22 23l-14 22l-4 21v40q-16 -22 -51 -38l-32 -10l-32 -3q-59 0 -93 29q-42 29 -42 87q0 80 91 117q22 9 45 9q14 0 31 -6l34 -18q33 -24 49 -54v153h-281l-23 53h420l20 -53h-93l2 -328l7 -22l11 -20q5 -5 16 -13l126 -84zM256 309q-24 24 -60 24
q-16 0 -29 -4t-21 -14l84 -137q18 2 37 27l12 22l4 23q0 18 -6.5 33t-20.5 26zM125 305q-13 -5 -21 -13t-17 -21l-11 -25l-4 -27q0 -49 47 -65l30 -4l15 1l16 3l15 5l15 7z" />
    <glyph glyph-name="d" unicode="d" horiz-adv-x="531" 
d="M298 441v-177l23 24l26 19q18 13 54 17q36 0 65.5 -51t29.5 -96q0 -27 -16 -58q-10 -25 -26 -46q-3 -4 -11 -12l-31 44l21 30l17 31l11 28l4 25q0 43 -28 59q-8 4 -21 6q-16 0 -32.5 -8t-32.5 -23l-30 -33l-23 -38v-65q0 -15 2 -23l7 -20l11 -19l16 -16l124 -93l-10 4
l-152 100l-22 23l-14 23l-4 21v48l-12 -8l-12 -6l-13 -5l-12 -4l-28 -6l-35 -1q-34 -1 -60 21.5t-36 55.5q-7 24 -7 45q0 41 24.5 69.5t67.5 28.5q50 0 82 -22q11 -6 21 -19q10 -9 20 -26v153h-250l-20 53h541l22 -53h-251zM256 267l-29 22l-24 15l-24 8l-25 3
q-37 0 -59 -22q-25 -18 -25 -53q0 -30 19 -53q9 -8 22 -16q9 -3 28 -5l30 3q21 5 31 11l30 17l28 21z" />
    <glyph glyph-name="e" unicode="e" horiz-adv-x="409" 
d="M481 -33l-150 102l-22 23l-14 22l-4 21v75h-157v-54q0 -10 -4 -15l-9 -4q-6 0 -13 4l-14 14l-44 53q-7 5 -9 11l-2 14q0 13 22 17l33 1v190h-84l-23 53h430l20 -53h-103l2 -328l7 -22l11 -20q6 -7 16 -13l116 -90zM290 441h-156v-190h156v190z" />
    <glyph glyph-name="f" unicode="f" horiz-adv-x="186" 
d="M371 590q-24 13 -52 21q-36 10 -60 12l-61 4q-49 3 -84 -21q-32 -18 -32 -63v-16l1 -13q0 -5 2 -12l5 -9l100 1l20 -53h-113v-305q0 -17 2 -23l7 -22l11 -19l16 -14l121 -91h-10l-150 103l-22 22q-6 6 -14 22l-4 21v306h-52l-20 53h72l-6 10l-4 19l-3 21l-1 19
q-2 47 36 78q35 28 100 28q20 0 34 -2l35 -5q10 -1 34 -10l34 -12q25 -9 66 -34q38 -24 61 -43v-10z" />
    <glyph glyph-name="g" unicode="g" horiz-adv-x="339" 
d="M304 -23q-63 17 -98 32q-136 58 -136 126q0 28 10 48q3 8 11 22l14 17l-10 4l-6 5l-14 12l-14 18l-15 27l-4 27q0 44 46 57q20 5 35 5l138 1v63h-253l-21 53h359l20 -53h-63v-105h-180q-10 0 -19 -5l-13 -9l-8 -15l-2 -18l2 -20l9 -18l13 -13l18 -6q31 20 67 20
q28 0 48 -8q51 -14 75 -56q10 -19 10 -42q0 -29 -19 -52l-21 -16q-7 -3 -22 -5h-4l-4 2l-5 3l-4 5l-6 9l-2 9l3 5q27 0 37 18q6 12 6 42q0 18 -5 28q-4 16 -36 22q-17 3 -44 3q-22 0 -45 -24t-29 -60l-2 -27q-1 -14 13 -30q5 -7 9 -10l28 -20l39 -20l38 -16l45 -15l51 -16
l59 -16l1 -9q-41 5 -100 21z" />
    <glyph glyph-name="h" unicode="h" horiz-adv-x="186" 
d="M244 -33l-150 103l-22 22q-6 6 -14 22l-4 21v306h-52l-20 53h91q0 56 -26 99.5t-80 43.5q-25 0 -45 -24q-6 -7 -13 -23q-3 -8 -6 -27l-3 -20q-3 -6 -10 -6q-5 1 -6 2l-6 7l-3 4l-2 5l-2 8q0 48 24 80q27 36 72 36q53 0 92 -57t39 -129l92 1l20 -53h-113v-305q0 -17 2 -23
l7 -22l11 -19l16 -14l121 -91h-10z" />
    <glyph glyph-name="i" unicode="i" horiz-adv-x="373" 
d="M441 -32l-151 102l-22 22q-6 6 -14 22l-4 21v51q-21 -23 -56 -23q-48 0 -88 41q-21 22 -31 42q-10 27 -10 47v148h-64l-21 53h386l23 -53h-96v-305q0 -17 2 -23l7 -22l11 -19l16 -14l123 -89zM250 441h-143v-179q0 -25 19 -44q16 -18 44 -21l20 4l30 12l30 16v212z" />
    <glyph glyph-name="j" unicode="j" horiz-adv-x="290" 
d="M373 -61l-280 231q-15 10 -26 21l-16 23l-9 23l-3 23l4 9l6 8l7 5l10 2q7 0 18 -6l22 -17l9 -3l9 1l7 9l5 15l2 21v137h-147l-21 53h324l20 -53h-134v-147q0 -51 -21 -77q-5 -8 -19 -17l-25 -11l263 -237z" />
    <glyph glyph-name="k" unicode="k" horiz-adv-x="172" 
d="M248 -32l-125 81l-29 21l-22 22q-6 6 -14 22l-4 21v306h-52l-20 53h201l20 -53h-106v-305q0 -17 2 -23l7 -22l11 -19l16 -14l121 -91z" />
    <glyph glyph-name="l" unicode="l" horiz-adv-x="480" 
d="M547 -32l-150 101l-22 23l-14 22l-4 21v74l-17 -8l-22 -3l-21 -1h-30q-7 2 -18 4q-14 3 -34 15l-15 9l-12 10l-9 9l-5 9q-3 -12 -12 -26q-5 -10 -18 -19l-18 -12l-21 -8l169 -178l-21 -12l-158 169q-25 27 -43 52q-14 25 -14 41l4 9l6 8l7 5l10 2q7 0 18 -6l26 -20l5 -1
q24 0 24 47v137h-127l-22 53h484l21 -53h-95v-305q0 -17 2 -23l7 -22l11 -19l16 -14l122 -91zM357 441h-177v-147l-2 -11q5 -22 27 -34l21 -8l26 -2q11 -1 26 2l31 6l18 5l30 9v180z" />
    <glyph glyph-name="m" unicode="m" horiz-adv-x="362" 
d="M258 441q50 -33 50 -92q0 -30 -15 -47q-5 -8 -19 -17l-27 -12q47 -20 80 -64l19 -34q5 -14 7 -29q0 -49 -46 -83q-24 -18 -46 -26q-28 -7 -45 -7q-44 0 -97 41q-63 49 -96 117l-3 8l-1 7q0 7 2 10l9 4q9 -4 17 -20q30 -61 85 -100q14 -10 23 -14q21 -10 40 -10
q69 0 97 58q8 17 8 35q0 31 -36 63t-80 32l-17 -2q-10 0 -23 -4l-22 -4l-11 -1l-22 55q8 0 12 2l14 2l8 -1l17 -2q13 0 19 -2h15q37 0 60.5 19t23.5 43l-3 28l-9 24l-6 9l-5 7l-6 4l-6 2l-228 1l-21 53h398l22 -53h-136z" />
    <glyph glyph-name="n" unicode="n" horiz-adv-x="369" 
d="M302 55l13 -23l15 -20q9 -9 23 -16l69 -45h-10l-74 33q-26 11 -44 34l-18 27q-6 12 -6 23l21 13zM248 67q-39 0 -71.5 11.5t-67.5 41.5q-39 32 -55 65.5t-16 75.5q0 36 28 63q22 22 65 29q11 2 31 2l85 1v85h-252l-21 53h398l22 -53h-105v-125h-105q-48 0 -76 -25.5
t-28 -71.5q0 -49 40.5 -83.5t93.5 -34.5l24 4l-3 8l-1 14q-1 9 2 17l7 16q5 8 11 12l15 5q24 0 37 -14q7 -8 9 -18l4 -21q0 -35 -29 -47l-20 -8z" />
    <glyph glyph-name="o" unicode="o" horiz-adv-x="398" 
d="M491 -33l-121 58l-13 9q-23 15 -36 34l-15 22l-4 21v66l-27 -23l-32 -16l-34 -11l-32 -3q-55 0 -95.5 41t-40.5 96q0 40 31 69t74 36l24 4q35 0 75 -21q17 -9 32 -24q14 -11 25 -30v146h-302l-23 53h441l21 -53h-95v-329q0 -17 2 -23l7 -22l11 -19l16 -14l122 -68z
M302 274l-39 23l-33 16l-28 8l-25 3q-57 0 -87 -51q-7 -18 -7 -33q0 -26 10 -56q14 -17 27 -23q9 -4 26 -6q33 0 59 13t60 38q19 14 37 32v36z" />
    <glyph glyph-name="p" unicode="p" horiz-adv-x="478" 
d="M542 -33l-150 102l-22 23l-14 23l-4 21v49q-14 -28 -50 -37l-39 -10l-45 -3l-20 2q-8 2 -19 7l-20 10l-20 16q-16 16 -27.5 36.5t-11.5 38.5q0 25 23 48l-62 1l-22 42h231l22 -42h-84l-12 -3q-6 0 -12 -4l-13 -9q-7 -3 -12 -10q-25 -25 -25 -49q0 -39 45 -60l29 -4
q31 0 81 31q41 25 63 51v204h-344l-21 53h501l22 -53h-116v-305q0 -17 2 -23l7 -22l11 -19l16 -14l124 -92z" />
    <glyph glyph-name="q" unicode="q" horiz-adv-x="6" 
d="M15 -161q-16 -8 -42 -13.5t-51 -5.5q-34 0 -58 11q-31 6 -67 31l-49 34q-20 14 -46 40l9 11q18 -18 42 -34q14 -11 48 -29q46 -24 91 -31q13 -2 30 -2q34 0 62 16q33 20 33 49l-3 27q-3 13 -8 19l-10 12l-9 4l-10 -1l-11 -2l-10 -4l-10 -5l-8 -5l-16 -14l-42 31l11 13
q4 5 14 9l18 7l22 2q35 0 74.5 -34t39.5 -70q0 -43 -44 -66z" />
    <glyph glyph-name="r" unicode="r" horiz-adv-x="403" 
d="M470 -33l-149 102l-22 23l-14 22l-4 21v170h-112q-16 0 -31 -6q-28 -9 -37 -30q-4 -10 -6 -29q0 -51 15 -90q16 -42 41 -81l39 -50l-21 1l-38 54l-37 56q-21 31 -31 62.5t-10 55.5q0 47 31.5 72.5t74.5 25.5l122 1v94h-270l-21 53h407l20 -53h-94v-305q0 -17 2 -23l7 -22
l11 -19l16 -14l122 -91h-11z" />
    <glyph glyph-name="s" unicode="s" horiz-adv-x="6" 
d="M-116 497q-17 30 -36 54l-42 52q-14 17 -38 36q-18 14 -30 14l-54 1l-52 74h63q28 0 94 -73q54 -60 117 -159z" />
    <glyph glyph-name="t" unicode="t" horiz-adv-x="502" 
d="M582 -33l-150 103q-13 12 -21 24l-15 23l-4 22v166h-162l31 -37l23 -32l8 -15l6 -14l3 -15l2 -15q0 -18 -8.5 -37t-31.5 -33q-5 -3 -15.5 -7.5t-29.5 -6.5q-44 0 -103 60q-34 34 -50.5 65t-25.5 75l1 11l6 4q6 -2 8 -4l7 -11q22 -70 63 -109q18 -18 36.5 -28t36.5 -10
q31 0 47 19q14 16 17 44q0 23 -32.5 61t-94.5 76l258 1v94h-384l-21 53h521l20 -53h-94v-305q0 -17 2 -23l7 -22l11 -19l16 -14l121 -90z" />
    <glyph glyph-name="u" unicode="u" horiz-adv-x="374" 
d="M444 -33l-150 103l-22 22q-6 6 -14 22l-4 21v106h-131v-52q0 -21 -12 -24l-9 3l-12 9l-41 54q-7 9 -9 14l-3 13q0 24 33 24l184 1v158h-248l-20 53h384l20 -53h-93v-305q0 -17 2 -23l7 -22l11 -19l16 -14l123 -90z" />
    <glyph glyph-name="v" unicode="v" horiz-adv-x="550" 
d="M633 -33l-150 102l-22 23l-14 22l-4 21v83l-9 -6l-17 -2l-23 -1h-24l-17 1l-19 5l-17 7l-11 8l7 -21l2 -20q0 -51 -37 -83.5t-88 -32.5q-56 0 -127 71q-36 36 -61 86l1 7l4 8l6 6l6 2l3 -2q7 -26 24 -48q37 -49 91 -70q23 -9 53 -9q34 5 56 29q9 10 15 26q3 8 5 30
q0 30 -10 49.5t-33 23.5l-16 -2l-21 -6q-17 -5 -25 -10l-22 -14l-42 44l-2 4q4 6 7 8l24 9l34 7l42 2l15 9l14 16l9 19l4 20q0 45 -48 61q-18 5 -31 4l-26 -2l-19 -5q-9 -1 -17 -7l-16 -12l-12 -8l-31 43l18 13q10 7 23 10l26 6l28 2q47 3 100 -35q47 -35 47 -81l-3 -24
q-3 -24 -20 -43l-19 -17q10 -2 21 -8l32 -17q19 -10 31 -14l31 -4l18 1l24 6l24 7q5 1 18 8v169h-104l-22 53h242l19 -53h-92l2 -328l7 -22l11 -20q3 -4 16 -13l123 -89z" />
    <glyph glyph-name="w" unicode="w" horiz-adv-x="5" 
d="M174 -190l-138 126l-25 16l-16 9l-15 5l-16 1q-63 4 -63 -73l1 -7l2 -8l5 -6l5 -8l14 -10l15 -4l26 3q7 2 14 9t12 9l10 2h11l20 -23q-3 -7 -11 -12l-15 -10l-17 -7l-18 -2q-43 0 -74 31t-31 74q0 34 23.5 59t61.5 25q21 0 41 -10q13 -6 40 -32l160 -157h-22z" />
    <glyph glyph-name="x" unicode="x" horiz-adv-x="392" 
d="M470 -33l-150 102l-22 23l-14 22l-4 21v306h-113v-243q0 -36 -18 -36q-12 0 -24 15l-61 74l-2 10q0 12 21 12l42 1v167h-115l-23 53h409l20 -53h-94v-305q0 -17 2 -23l7 -22l11 -19l16 -14l122 -91h-10z" />
    <glyph glyph-name="y" unicode="y" horiz-adv-x="521" 
d="M589 -33l-150 102l-22 23l-14 22l-4 21v159h-4l-7 2l-16 2q-29 0 -50.5 -16.5t-39.5 -45.5l-16 -39l-43 13l3 10l5 13l7 14l8 14q-3 14 -13 24l-21 17q-16 7 -26 9l-25 4q-52 0 -67 -55q-7 -24 -7 -51q0 -23 11 -44q15 -29 36 -51l37 -39l42 -35q17 -10 26 -19t9 -14
l-2 -4l-3 -3l-5 -1l-4 -1l-5 2l-3 1l-7 4l-6 4q-35 24 -76 64q-62 61 -81 115q-10 29 -10 52q0 83 54 107q18 8 39 8q10 0 15 -2l16 -3l15 -7l15 -8q9 -5 31 -24q12 -12 25 -30l18 20l23 17l14 7l14 6l13 3l14 1q14 1 25 -5q10 -2 22 -12v123h-396l-21 53h543l26 -53h-109
l2 -328l7 -22l11 -20q6 -7 16 -13l120 -89z" />
    <glyph glyph-name="z" unicode="z" horiz-adv-x="6" 
d="M-222 -2l-31 32l163 126v-53z" />
    <glyph glyph-name="braceleft" unicode="{" horiz-adv-x="261" 
d="M253 441l-22 53h107v-53h-85zM373 -41l-184 124l-14 -7l-17 -1q-32 -2 -69 19q-50 28 -74 72q-15 25 -15 53q0 25 42 56l17 10l31 19l-36 23l-29 27q-25 30 -25 55q0 34 30 59t65 25q32 0 75 -38q20 -19 30.5 -38.5t10.5 -39.5q0 -9 -5 -18l-15 -20l-11 -11l-11 -10
l-14 -12l-14 -10l22 -8l23 -5l25 -3l27 -1h12q17 0 36.5 6t34.5 17l17 22v-50l-12 -10l-19 -7l-22 -6l-23 -1l-29 2l-33 7l-35 11q-17 5 -22 8l-15 8l-36 -27l-23 -20q-9 -8 -20 -26q-5 -11 -7 -25q0 -43 26 -63q12 -10 26 -16l31 -4q27 0 44 10l-8 14l-6 14l-5 13l-1 13
q-1 15 20 19q12 0 22 -5q16 -6 25 -14l19 -18q5 -7 7 -16l-3 -12l-8 -11l-11 -10l-9 -9l176 -135zM155 446q-5 7 -17 11l-22 4q-28 0 -52 -24l-10 -12l-7 -12l-4 -13l-1 -12q-1 -9 3 -18.5t14 -17.5l19 -19l27 -18l22 16l20 17q22 19 22 40q0 44 -14 58z" />
    <glyph glyph-name="bar" unicode="|" horiz-adv-x="458" 
d="M538 -34l-146 97l-18 16l-6 5l-6 8l-9 14l-7 -5l-37 -26l-37 -19q-13 -7 -38 -12l-37 -4q-40 0 -72.5 36.5t-32.5 78.5q0 10 2 16l8 17l10 14q4 6 11 7q-6 0 -12 4l-12 8l-13 11l-12 15q-24 30 -24 68l3 23q6 22 27 33q8 4 23 6l105 1v63h-200l-21 53h479l20 -53h-94
l2 -328l7 -22q4 -13 11 -21l15 -13l121 -91h-10zM350 441h-100v-105h-127q-41 0 -41 -43l3 -21l10 -19q6 -9 16 -15l23 -8l116 1l20 -42h-93q-31 0 -41 -35l-2 -21l3 -28q6 -24 27 -39q7 -3 23 -5q32 0 71 24l45 28l47 38v290z" />
    <glyph glyph-name="braceright" unicode="}" horiz-adv-x="378" 
d="M491 -58l-177 122q-18 -32 -55 -59l-36 -20q-14 -5 -31 -7q-52 0 -86 19q-40 18 -40 64q0 33 38 51l36 17q17 6 30 6q-45 21 -78 58q-38 41 -38 80q0 46 34 75t73 29l93 1v63h-251l-21 53h400l21 -53h-106v-105h-115q-31 0 -59 -21q-10 -7 -20 -24q-6 -12 -6 -30
q0 -53 41 -80q13 -9 42 -20q24 -6 54 -6l-6 15l-4 15l-3 13l-1 8q0 24 26 24q12 0 22.5 -3.5t19.5 -12.5l15 -15l5 -11q0 -12 -2 -17l-6 -14q-3 -6 -10 -12l-13 -10l225 -184zM254 124l-16 3q-21 0 -39 -9q-16 -4 -44 -22q-23 -15 -31 -23q-14 -14 -16 -33l1 -20l6 -13
q3 -4 13 -7l22 -2q48 0 84 34q21 20 30 34.5t9 30.5q0 11 -4.5 16t-14.5 11z" />
    <glyph glyph-name="asciitilde" unicode="~" horiz-adv-x="16" 
d="M136 -190q-38 53 -101 100q-49 37 -78 37h-41l-33 51h64q50 -14 109 -74l54 -55l46 -59h-20z" />
    <glyph glyph-name="quotesinglbase" unicode="&#x201a;" horiz-adv-x="172" 
d="M248 -32l-125 81l-29 21l-22 22q-6 6 -14 22l-4 21v306h-52l-20 53h201l20 -53h-106v-305q0 -17 2 -23l7 -22l11 -19l16 -14l121 -91zM155 556l-38 -20q-18 -6 -34 -6q-32 0 -69 30q-21 17 -44 52q-5 7 -12 23l3 7q5 3 7 3l11 -15l19 -19.5t35 -26t50 -13.5q12 0 21 5
l29 17q9 5 27 25q11 11 18 27l32 -30q-10 -27 -55 -59z" />
    <glyph glyph-name="florin" unicode="&#x192;" horiz-adv-x="370" 
d="M265 -61l-6 -12l-9 -8q-3 -3 -9 -3q-37 0 -54 31q11 0 15 2l13 6q6 3 9 9q3 3 3 9l-2 8l-7 8l-177 178l93 107q-13 0 -28 7l-37 25q-22 18 -36.5 40.5t-14.5 41.5q0 40 30 66q23 20 55 26q10 2 22 2q27 0 61 -37q39 -44 39 -98v-13l-1 -4v-4l-3 -9l-3 -13l-124 -157
l164 -166l5 -10l3 -9l1 -9q0 -10 -2 -14zM170 426l-20 10l-25 4q-20 0 -38 -24l-11 -25l-4 -25v-16q2 -10 16 -34q8 -10 20.5 -16.5t25.5 -6.5q19 0 34 30l14 28q3 10 5 26q0 19 -4 30t-13 19z" />
    <glyph glyph-name="quotedblbase" unicode="&#x201e;" horiz-adv-x="447" 
d="M349 -75l-126 222l-16 -2h-16l-13 5t-25 14q-25 21 -25 45v19l2 14l8 15l10 12l11 4q16 0 25 -15l7 -16l11 -23l21 -2q41 0 70 35q26 30 33 74q2 12 2 29q0 24 -7 39q-10 28 -49 40q-23 6 -46 6q-12 0 -29 -2l-25 -3l-26 -7l-29 -9l-31 32l19 14l27 11l30 6l34 2l27 -1
q62 -2 102 -54q25 -32 32 -75q2 -12 2 -30q0 -28 -8 -51q-20 -59 -82 -102q-10 -7 -25 -16l115 -208z" />
    <glyph glyph-name="ellipsis" unicode="&#x2026;" horiz-adv-x="447" 
d="M336 104.5q-19 -20.5 -36 -32.5l-46 -22l74 -103l-22 -11l-83 115l-34 3q-35 8 -52 34q-9 12 -9 27q0 10 2 14l6 13l10 9l13 4q8 0 15.5 -3.5t19.5 -13.5l17 -18l12 -16l15 -1q33 -2 62 27q14 14 20 27.5t8 30.5q0 19 -5 32q-6 26 -31 36q-9 3 -26 5l-127 1l-22 54h106
l31 3q50 17 52 58q1 25 -18 39q-12 8 -27 10l-38 4l-117 1l-31 52h138q19 0 43.5 -11.5t41.5 -30.5q38 -41 38 -88l-3 -21q-1 -9 -7 -19q-2 -7 -12 -17q-5 -7 -17 -14l26 -20l22 -23q24 -25 25 -51q1 -24 -7 -43.5t-27 -40z" />
    <glyph glyph-name="dagger" unicode="&#x2020;" horiz-adv-x="447" 
d="M270 256l79 -67l14 -17l10 -17l7 -19l2 -21q0 -14 -9 -29q-20 -26 -64 -41q-22 -5 -43 -5q-74 0 -109 64q-9 24 -8 42l1 15q1 10 4 18l7 17l9 13l53 60l-210 182l10 23l215 -190l175 199l20 -42zM333 158l-3 12l-5 9l-8 9l-63 53l-52 -63l-6 -10l-4 -13l-2 -15v-16
q4 -25 19 -38l19 -10q11 -3 26 -3t23 2l23 6q11 3 18 9l10 13l4 17l2 20z" />
    <glyph glyph-name="daggerdbl" unicode="&#x2021;" horiz-adv-x="431" 
d="M370 -64l-84 242q-6 -9 -17 -15l-20 -10l-12 -4l-11 -1q-8 0 -12 -2h-12q-70 0 -108 48q-21 26 -30.5 51t-9.5 59v22l2 35l7 42l10 41l13 38l42 -41l-14 -40l-10 -38l-6 -39l-1 -42q-2 -71 46 -97q18 -8 39 -8h14q7 0 19 2l22 7q13 8 17 33l-6 18l-2 18q0 12 2 18l7 16
l9 11l11 4q12 0 18.5 -4t12.5 -13l7 -19l3 -22l-3 -27q-1 -10 -7 -22l84 -241z" />
    <glyph glyph-name="circumflex" unicode="&#x2c6;" horiz-adv-x="447" 
d="M370 -64l-64 126l-24 -1q-74 -3 -133 42q-32 24 -47.5 51.5t-15.5 64.5q0 17 2 22l7 19q10 19 33 33q-33 17 -52 50l-17 30l-5 24q0 17 7 31q11 29 51 47q21 7 37 7l117 1l51 -52h-158q-12 0 -21 -4t-17 -12l-11 -17l-4 -21q0 -35 20 -51q7 -6 18 -9l26 -2l116 1l31 -54
h-127q-16 -6 -24 -14q-12 -7 -26 -30q-3 -4 -8 -15l-4 -26q0 -30 31 -58t64 -26l21 1q12 2 15 5l8 7q3 5 3 11l-1 8l-2 7l-3 5l-1 5l-1 4v7q0 18 10 22l10 4l9 2q23 0 40 -23q15 -19 18 -49l-2 -13l-3 -10l-6 -8l-10 -5l62 -126z" />
    <glyph glyph-name="perthousand" unicode="&#x2030;" horiz-adv-x="447" 
d="M405 178q-17 -85 -69 -118q-31 -20 -70 -20q-102 0 -172 148q-61 130 -61 273q0 24 11 24q10 -7 10 -24q0 -104 27 -183q8 -23 23 -55q62 -130 162 -130q59 0 89.5 43t30.5 104q-11 -8 -27 -14.5t-32 -6.5q-58 0 -91 51q-8 12 -13 34l-6 27l-1 25q-1 34 18 49l22 10l30 4
q61 0 94 -51q24 -37 31 -81q2 -14 2 -34q0 -34 -8 -75zM359 366q-13 22 -44 22q-45 0 -66 -43q-5 -13 -5 -30q0 -25 19 -44q16 -17 43 -21q60 0 68 65q0 14 -3.5 27.5t-11.5 23.5z" />
    <glyph glyph-name="Scaron" unicode="&#x160;" horiz-adv-x="447" 
d="M324 33q-57 -38 -91 -35l-35 3q-14 1 -34 10l-31 17q-12 8 -27 22l-21 25l-15 24l-9 22l-3 20l1 13q1 8 2 10l5 11l9 13l242 295l22 -42l-242 -301l-2 -15q0 -18 9 -33q24 -41 78 -52q10 -2 22 -2h11l8 2q42 11 70 31q34 25 66 64l31 -30q-12 -37 -66 -72z" />
    <glyph glyph-name="guilsinglleft" unicode="&#x2039;" horiz-adv-x="462" 
d="M376 -45l-18 -11l-16 -4q-14 0 -21 9l-6 12l-2 17q9 0 13 2l8 7l5 9l2 11l-2 13q0 7 -4 16l-6 14l-6 11l-231 264l-5 14l-4 13l-1 14q-1 20 9 42q19 40 71 64q22 10 44 10q48 0 87.5 -31.5t39.5 -84.5q0 -50 -53 -88t-94 -38l189 -189l8 -12l7 -14l5 -18l2 -18
q-2 -11 -7 -19t-14 -15zM279 407q-4 37 -40 43q-51 0 -78.5 -33.5t-27.5 -81.5q0 -10 2 -16l7 -13l11 -10l13 -3q46 0 81 22.5t35 61.5z" />
    <glyph glyph-name="OE" unicode="&#x152;" horiz-adv-x="447" 
d="M306 147q-20 -22 -40 -33q-23 -10 -43 -10q-60 0 -92 39q-18 22 -26 44.5t-8 52.5q0 43 21 78q23 39 59 59q21 11 46 11q30 0 49 -8q50 -16 68 -64q9 -24 9 -55q0 -67 -43 -114zM253 345q-16 10 -30 10q-43 0 -68 -25q-9 -11 -15.5 -28.5t-6.5 -34.5q0 -71 53 -108
q15 -8 37 -13h21q73 0 73 84q0 73 -64 115z" />
    <glyph glyph-name="quoteleft" unicode="&#x2018;" 
 />
    <glyph glyph-name="quoteright" unicode="&#x2019;" horiz-adv-x="378" 
d="M254 441l22 -24l17 -27l10 -30l4 -30q0 -29 -11 -61q-22 -66 -77 -102q-25 -16 -57 -24l240 -186l-10 -10l-253 189q-23 0 -42 7t-31 23l-6 12l-1 18l1 13l3 11l6 7q3 3 8 3l16 -3l16 -9l15 -16q7 -7 15 -25h12q23 0 52.5 25.5t42.5 58.5l-15 3l-11 3q-33 9 -57 23
t-45 34l-10 13l-9 19l-6 21l-2 20q0 28 17 43l-105 1l-21 53h410l21 -53h-159zM258 384q-8 41 -35 57q-12 9 -31 9q-22 0 -38 -18l-11 -23l-4 -32q0 -42 29 -62q28 -24 67 -24h11l8 2l6 23l2 29q1 14 -4 39z" />
    <glyph glyph-name="quotedblleft" unicode="&#x201c;" horiz-adv-x="433" 
d="M130 420q0 18 -8 23l-13 5l-22 2q-18 0 -25 -13l-5 -17l-1 -23q-2 -42 47 -63l27 -4v90zM304 441h-62l-20 53h211l20 -53h-106v-305q0 -17 2 -23l7 -22l11 -19l16 -14l121 -91l-6 1l-125 81l-29 21l-22 22q-6 6 -14 22l-4 21v75h-132v-54q0 -7 -2 -10l-7 -2h-6l-4 2l-6 4
l-6 5l-54 55l-11 15l-4 12q0 6 4 9l11 4l43 1v65q-32 0 -68.5 18.5t-50.5 46.5q-8 16 -8 38q0 28 25.5 51t48.5 23q26 0 50 -19t37 -45q6 -14 8 -32v-146h132v190z" />
    <glyph glyph-name="quotedblright" unicode="&#x201d;" 
 />
    <glyph glyph-name="bullet" unicode="&#x2022;" 
 />
    <glyph glyph-name="endash" unicode="&#x2013;" horiz-adv-x="362" 
d="M289 441v-125h-105q-48 0 -76 -25.5t-28 -71.5q0 -49 40.5 -83.5t93.5 -34.5l24 4l-2 3l-2 7l-1 8v8q0 12 2 18l7 15q5 8 11 9l16 4l18 -3l17 -8q8 -5 12 -13l4 -18q0 -13 -2 -19l-6 -17l-9 -13l-13 -7l41 -81q-49 0 -87.5 -15.5t-38.5 -46.5q0 -6 4 -14l15 -14l18 -10
l16 -4q24 0 45 7q8 3 24 10l15 5l20 -42l-12 -5l-16 -4l-18 -2l-16 -1q-41 -3 -83 23q-22 13 -32.5 32t-10.5 39q0 53 73 77q21 7 42 7l-19 29l-22 -2q-39 0 -71.5 11.5t-67.5 41.5q-39 32 -55 65.5t-16 75.5q0 36 28 63q22 22 65 29q11 2 31 2l85 1v85h-242l-21 53h378
l22 -53h-95z" />
    <glyph glyph-name="emdash" unicode="&#x2014;" horiz-adv-x="531" 
d="M298 441v-177l23 24l26 19q18 13 54 17q36 0 65.5 -51t29.5 -96q0 -27 -16 -58q-10 -25 -26 -46q-3 -4 -11 -12l-31 44l21 30l17 31l11 28l4 25q0 43 -28 59q-8 4 -21 6q-16 0 -32.5 -8t-32.5 -23l-30 -33l-23 -38v-184l19 -26h-19q-35 0 -66 -15.5t-31 -46.5
q0 -13 17 -28l9 -6l9 -5l8 -3l9 -1l15 1q9 1 12 2l19 6l38 14l21 -43l-12 -5l-17 -4l-35 -2q-41 -3 -84 23q-22 13 -32 31t-10 40q0 19 8.5 34t25.5 27l36 16q18 6 40 6l-22 18v134l-12 -8l-12 -6l-13 -5l-12 -4l-28 -6l-35 -1q-34 -1 -60 21.5t-36 55.5q-7 24 -7 45
q0 41 24.5 69.5t67.5 28.5q50 0 82 -22q11 -6 21 -19q10 -9 20 -26v152h-250l-20 54h541l22 -53h-251zM256 266q-55 49 -102 49q-37 0 -59 -22q-25 -18 -25 -53q0 -52 40 -70l29 -4l15 1q11 1 16 2l15 4l15 6l29 15q17 12 27 22v50z" />
    <glyph glyph-name="tilde" unicode="&#x2dc;" horiz-adv-x="541" 
d="M477 441v-105h-126q-31 0 -53 -21q-8 -7 -16 -24q-5 -13 -5 -30q0 -53 41 -80q13 -9 42 -20q24 -6 54 -6l-3 9l-3 13l-3 14l-1 11v4l1 6v4l2 5l6 7l12 2q12 0 21 -4t18 -13l12 -18l4 -20q0 -11 -6 -23q-5 -7 -18 -17l85 -168l-23 -11l-84 169l-188 -74l10 -31
q0 -17 -16 -20l-14 2l-12 7l-31 22l-10 6l-7 8l-4 6l-1 8l2 7l9 7l22 10l-22 73l-24 -7l-24 -2h-17q-12 3 -18 4q-29 8 -48 42q-7 18 -7 37q0 30 17.5 45t46.5 18q51 0 88 -55q14 -20 28 -62q11 -31 20 -83l127 43q-26 7 -46 20q-44 28 -71 76q-10 23 -10 41q0 46 34 75
t73 29l93 1v63h-431l-20 53h558l20 -53h-84zM169 200q-4 41 -30 63q-13 10 -29 10q-18 0 -25 -15l-6 -17l-2 -22q0 -15 6 -27q12 -18 48 -24l41 -2z" />
    <glyph glyph-name="trademark" unicode="&#x2122;" horiz-adv-x="223" 
d="M6 441l-22 53h327v-53h-305zM290 244q-9 21 -47 41q-32 17 -70 25q-23 5 -51 5l-1 -27l-1 -17q-2 -13 -5 -19q-4 -11 -13 -12q-9 0 -19 7l-22 23q-12 16 -16.5 27t-6.5 27q0 31 73 31q28 0 59 -7q44 -11 98 -55q27 -22 43 -43zM164 147l4 -34l1 -14l1 -5q0 -20 -12 -23
l-11 2l-14 9l-50 39l-4 6l-3 5l-1 6q0 17 27 28l209 85v-41z" />
    <glyph glyph-name="scaron" unicode="&#x161;" 
 />
    <glyph glyph-name="guilsinglright" unicode="&#x203a;" horiz-adv-x="6" 
d="M39 662l-9 2l-10 9l-6 4l-8 3l-9 1l-10 1q-40 0 -53 -27q-8 -12 -12 -31l-4 -39l1 -22l2 -23q0 -5 2 -12v-12q0 -8 2 -12l1 -11l-10 1q-13 27 -34 54l-22 29q-4 5 -28 31q-60 65 -90 69l-48 -3l-32 62q5 1 6 2l3 2l12 4l12 2q8 0 19 -4l22 -12l23 -17l20 -20l126 -157
l-4 23l-3 24l-2 25l-1 27l-1 16q-1 15 6 29q6 27 29 38q11 4 28 6q26 0 44 -14q9 -5 20 -16l20 -21l3 -7zM-106 494q-72 72 -132 72l-42 -7l-40 46l-2 5q0 6 8 10l18 4l14 -1q86 -18 188 -130zM16 558l-33 31l33 31l31 -31z" />
    <glyph glyph-name="oe" unicode="&#x153;" 
 />
    <glyph glyph-name="Ydieresis" unicode="&#x178;" horiz-adv-x="253" 
d="M6 441l-22 53h327v-53h-305zM217 294q-28 0 -45 -20l-17 -20q-4 -6 -9 -24l-3 -10l-1 -10q0 -7 -2 -11v-10q0 -37 15 -78q4 -13 12 -27l25 -44q4 -8 15 -21q3 -3 19 -21h-20l-36 52l-36 54q-46 70 -43 124l1 16q0 8 4 17l6 16l9 16l-73 1l-21 42h294v-42h-94z" />
    <glyph glyph-name="nonbreakingspace" unicode="&#xa0;" horiz-adv-x="302" 
 />
    <glyph glyph-name="exclamdown" unicode="&#xa1;" horiz-adv-x="3" 
d="M-117 628l-32 32l32 32l33 -32zM-5 563q-10 -10 -18 -14l-37 -20q-18 -6 -34 -6q-33 0 -70 30q-27 23 -45 52l-12 22l1 4l6 6l4 1q4 -7 30 -36q6 -6 15 -12l18 -12l17 -8l18 -5l18 -1q10 -1 21 5l25 16l29 25q11 10 18 28l32 -30q-9 -20 -36 -45z" />
    <glyph glyph-name="cent" unicode="&#xa2;" horiz-adv-x="6" 
d="M-281 497q-17 30 -36 54l-42 52q-14 17 -38 36q-18 14 -30 14l-54 1l-52 74h63q28 0 94 -73q54 -60 117 -159z" />
    <glyph glyph-name="sterling" unicode="&#xa3;" horiz-adv-x="560" 
d="M427 170l-18 -12l-19 -7l-22 -2q-30 0 -53 9q-49 19 -72 63q-10 27 -10 52q0 41 39 68q34 25 77 25l31 -3l26 -9q14 -7 22.5 -15t19.5 -24v-32l-20 11l-12 8q-15 7 -27 9l-30 4q-32 0 -56 -18q-28 -21 -28 -47q0 -20 11.5 -40t28.5 -28q6 -3 24 -5q30 0 58 20l22 16
l29 27v-51zM170 305q0 -57 -24 -86l-14 -17l-26 -25q11 -20 31 -38l40 -30q21 -11 47 -20q32 -7 51 -7l38 1h22q11 3 16 4l34 7q14 3 28 10l31 16l22 -37l-222 -105l-31 32l62 31q-73 0 -152 79q-39 39 -59 71q-18 29 -31 70q0 14 21 17l9 -1l11 -3l6 -3q5 -1 6 -2l5 -4
l6 -4l11 4q8 6 12 15l6 12l2 12v137h-126l-20 53l600 -1l20 -53h-106v-305q0 -17 2 -23l7 -22l11 -19l16 -14l121 -91l-6 1l-125 81l-29 21l-22 22q-6 6 -14 22l-4 21l3 308l-286 -1v-136z" />
    <glyph glyph-name="currency" unicode="&#xa4;" horiz-adv-x="287" 
d="M206 156q-19 -7 -42 -7q-50 0 -75 30q-9 10 -20 33q-6 18 -6 41q0 46 28 75.5t73 29.5q27 0 43 -8q26 -10 42 -38t16 -58q0 -31 -15 -58q-17 -30 -44 -40z" />
    <glyph glyph-name="yen" unicode="&#xa5;" horiz-adv-x="486" 
d="M5 441l-21 53h507l20 -53h-94v-305q0 -17 2 -23l7 -22l11 -19l16 -14l121 -91l-6 1l-125 81l-29 21l-22 22q-6 6 -14 22l-4 21v75h-69q-6 -36 -36 -60q-33 -26 -85 -26q-25 0 -43.5 8t-44.5 25l-34 30l-36 43l2 7l2 8l3 5l3 2q81 -97 138 -97q39 0 67 28t28 67l-3 32
q-2 23 -21 29l-19 4l-15 -3l-15 -8l-16 -14q-10 -7 -18 -17l-42 32q18 41 85 41q21 0 37 -8q30 -11 53 -50q10 -17 13 -38l66 1v190h-369z" />
    <glyph glyph-name="brokenbar" unicode="&#xa6;" 
 />
    <glyph glyph-name="section" unicode="&#xa7;" 
 />
    <glyph glyph-name="dieresis" unicode="&#xa8;" horiz-adv-x="172" 
d="M183 494l20 -53h-106v-305q0 -17 2 -23l7 -22l11 -19l16 -14l121 -91l-6 1l-125 81l-29 21l-22 22q-6 6 -14 22l-4 21v306h-52l-20 53h86q-13 21 -39 57l-36 49q-19 21 -30 31q-22 20 -37 22l-54 1l-52 74h63q16 0 39 -20q32 -28 53 -55l54 -71q23 -30 60 -89z" />
    <glyph glyph-name="copyright" unicode="&#xa9;" horiz-adv-x="172" 
d="M183 494l20 -53h-106v-305q0 -17 2 -23l7 -22l11 -19l16 -14l121 -91l-6 1l-125 81l-29 21l-22 22q-6 6 -14 22l-4 21v306h-52l-20 53h84q-70 85 -118 83l-40 -2l-45 56l3 8l7 7l10 5l14 2l12 -1l8 -2q25 -6 65 -39q13 -10 25 -23l38 -39l29 -34l-10 34l-10 36l-15 33
l-19 32l-5 6l-4 5l-6 5l-4 3l-8 4l-12 2l-10 -2l-12 -3l-23 74q0 15 13 19q6 0 13 -4l15 -9l16 -16l17 -22l12 -21l12 -22l11 -25l12 -26q10 -22 25 -71q6 -23 11 -54z" />
    <glyph glyph-name="ordfeminine" unicode="&#xaa;" horiz-adv-x="6" 
d="M-75 -169l-89 123l-100 -80l-20 31l115 93l97 -136z" />
    <glyph glyph-name="guillemotleft" unicode="&#xab;" horiz-adv-x="223" 
d="M-18 494h250l22 -53h-252zM249 200l-174 -117l-31 33l186 123v26l-24 18l-31 16q-14 7 -32 12l-30 4q-37 0 -59 -22l-31 43l12 7l17 7l23 3l31 2q16 1 33 -5q34 -5 68 -31q10 -9 23 -23l19 -21v-75z" />
    <glyph glyph-name="logicalnot" unicode="&#xac;" 
 />
    <glyph glyph-name="minus" unicode="&#xad;" 
 />
    <glyph glyph-name="minus" unicode="&#x2212;" 
 />
    <glyph glyph-name="registered" unicode="&#xae;" horiz-adv-x="172" 
d="M183 494l20 -53h-106v-305q0 -17 2 -23l7 -22l11 -19l16 -14l121 -91l-6 1l-125 81l-29 21l-22 22q-6 6 -14 22l-4 21v306h-52l-20 53h86q-13 21 -39 57l-36 49q-19 21 -30 31q-22 20 -37 22l-54 1l-52 74h63q16 0 39 -20q32 -28 53 -55l54 -71q23 -30 60 -89z" />
    <glyph glyph-name="macron" unicode="&#xaf;" 
 />
    <glyph glyph-name="macron" unicode="&#x2c9;" 
 />
    <glyph glyph-name="degree" unicode="&#xb0;" 
 />
    <glyph glyph-name="plusminus" unicode="&#xb1;" horiz-adv-x="6" 
d="M-3 635l-16 14l-18 8l-20 3q-23 0 -41 -15q-14 -14 -18 -48q0 -30 8 -54t25 -50l-23 1q-3 2 -11 15l-14 31l-11 33l-6 24l-2 25q-3 36 20 66q22 27 56 27q18 0 27 -3.5t22 -13.5l19 -21l16 -27v-30zM-33 536l-31 31l31 31l31 -31z" />
    <glyph glyph-name="twosuperior" unicode="&#xb2;" 
 />
    <glyph glyph-name="threesuperior" unicode="&#xb3;" horiz-adv-x="447" 
d="M423 241l-41 42l41 42l43 -42zM339 441v-105h-180q-42 0 -42 -54l3 -21q3 -8 10 -17l15 -11l23 -4l14 2q13 0 21 2l24 1q54 2 108 -28q47 -27 47 -60q0 -84 -67 -115q-26 -12 -61 -12q-59 0 -131 55q-58 45 -100 103l-3 10l2 8q3 3 8 3l6 -3l8 -7q48 -68 98 -93
q23 -11 50 -17q24 -5 62 -5q36 0 65 16q26 14 30 46q0 17 -4 28q-5 21 -26 27q-13 4 -26 3l-19 -1l-27 -3q-19 0 -27 -2l-18 -1l-20 3q-10 0 -21 4l-22 15l-25 24l-16 27l-10 26l-3 24q0 29 19.5 48.5t54.5 19.5l138 1v63h-295l-20 53h472l21 -53h-136z" />
    <glyph glyph-name="acute" unicode="&#xb4;" horiz-adv-x="486" 
d="M5 441l-21 53h507l20 -53h-94v-305q0 -17 2 -23l7 -22l11 -19l16 -14l121 -91l-6 1l-125 81l-29 21l-22 22q-6 6 -14 22l-4 21v75h-69q-6 -36 -36 -60q-33 -26 -85 -26q-25 0 -43.5 8t-44.5 25l-34 30l-36 43l2 7l2 8l3 5l3 2q81 -97 138 -97q39 0 67 28t28 67l-3 32
q-2 23 -21 29l-19 4l-15 -3l-15 -8l-16 -14q-10 -7 -18 -17l-42 32q18 41 85 41q21 0 37 -8q30 -11 53 -50q10 -17 13 -38l66 1v190h-369z" />
    <glyph glyph-name="paragraph" unicode="&#xb6;" horiz-adv-x="381" 
d="M298 441v-186q13 18 24 27l28 23q17 14 59 19l1 -41q-12 0 -31.5 -8.5t-30.5 -21.5l-29 -32q-11 -12 -21 -37v-48l2 -23l7 -22l11 -20q4 -4 16 -13l124 -88l-12 -4l-151 103l-22 23l-14 22l-4 21v50q-11 -9 -26 -17q-10 -3 -29 -5q-48 0 -89 41.5t-41 88.5v148h-64
l-20 53h399l25 -53h-112zM255 441h-142v-179q0 -25 19 -44q16 -17 43 -21l20 4l30 12l13 7l17 8v213z" />
    <glyph glyph-name="periodcentered" unicode="&#xb7;" horiz-adv-x="310" 
d="M133 441q-30 0 -31 -32q-1 -24 54 -76l29 -26q84 -77 84 -130q0 -26 -8 -47q-14 -49 -60 -70q-23 -10 -48 -10q-49 0 -83 27q-37 28 -53 69l-4 16l1 4l4 2l9 -6l11 -16q17 -34 58 -49l26 -4q54 0 76 27q17 20 19 54v14q0 56 -84 139.5t-84 102.5q0 39 43 57q11 4 30 6
l158 1l22 -53h-169z" />
    <glyph glyph-name="periodcentered" unicode="&#x2219;" horiz-adv-x="310" 
d="M133 441q-30 0 -31 -32q-1 -24 54 -76l29 -26q84 -77 84 -130q0 -26 -8 -47q-14 -49 -60 -70q-23 -10 -48 -10q-49 0 -83 27q-37 28 -53 69l-4 16l1 4l4 2l9 -6l11 -16q17 -34 58 -49l26 -4q54 0 76 27q17 20 19 54v14q0 56 -84 139.5t-84 102.5q0 39 43 57q11 4 30 6
l158 1l22 -53h-169z" />
    <glyph glyph-name="cedilla" unicode="&#xb8;" horiz-adv-x="239" 
d="M300 168l-25 -13l-27 -8l-27 -2q-57 -4 -112 42q-50 42 -50 106l72 30q33 19 33 54q0 16 -2 22l-6 17q-2 6 -10 14q-4 6 -13 10l-127 1l-22 53h338v-53h-158l22 -27l17 -26l6 -14l4 -12l3 -14l1 -13q1 -8 -11 -19l-26 -25l-35 -24l-34 -17v-12q0 -19 16 -39
q13 -18 48 -22h21q41 11 48 14q24 8 44 21t34 28v-51q-10 -15 -22 -21z" />
    <glyph glyph-name="onesuperior" unicode="&#xb9;" 
 />
    <glyph glyph-name="ordmasculine" unicode="&#xba;" horiz-adv-x="339" 
d="M313 441v-116h-167q-29 0 -41 -12l-8 -13l-2 -19l2 -11l6 -12l9 -13l11 -12q31 20 76 27q13 2 33 2t29 -2l28 -6q13 -3 24 -10l21 -14v-20l-16 4l-18 4l-20 3l-21 1l-41 -2q-82 -16 -98 -69q-7 -24 -7 -47q0 -39 62 -88q59 -49 128 -69v-22q-33 11 -76 33
q-89 47 -132 103q-22 27 -25 54q0 77 41 112l-23 19q-6 6 -15 23l-9 24l-2 24q-2 23 18 36t54 13l136 1v74h-262l-21 53h379l21 -53h-74z" />
    <glyph glyph-name="guillemotright" unicode="&#xbb;" horiz-adv-x="454" 
d="M216 318l-41 44l43 42l41 -42zM26 210l-20 41h401l22 -41h-403zM218 46l-43 42l37 45l47 -45z" />
    <glyph glyph-name="onequarter" unicode="&#xbc;" horiz-adv-x="223" 
d="M238 -85l-3 -2l-9 3q-79 47 -124 138q-24 49 -34 92t-10 99q0 101 42 189.5t126 142.5l8 3l6 -6l-4 -9l-10 -10q-62 -62 -87 -137q-28 -84 -28 -178q0 -150 63 -244q20 -32 52 -60l10 -9l4 -9z" />
    <glyph glyph-name="onehalf" unicode="&#xbd;" horiz-adv-x="270" 
d="M215 57q-46 -94 -126 -141l-8 -3l-4 4l3 9l9 10q58 52 90 135q27 70 27 169q0 95 -27 173.5t-90 141.5l-9 9l-3 9l3 3l9 1q79 -46 125 -141q43 -88 43 -191t-42 -188z" />
    <glyph glyph-name="threequarters" unicode="&#xbe;" horiz-adv-x="302" 
d="M14 226l-11 41h278l12 -41h-279zM22 102l-11 41h278l12 -41h-279z" />
    <glyph glyph-name="questiondown" unicode="&#xbf;" horiz-adv-x="203" 
d="M244 -182q-101 0 -129 68q-11 25 -11 53v209q0 34 -19 68t-52 53l10 8l9 6l18 15l12 15l8 15l7 20l5 20l2 16v210q0 22 9 46q18 48 58 67q21 10 43 10l13 -2l17 -3l82 1v-31h-80q-20 0 -39 -8q-38 -15 -54 -48q-7 -18 -7 -35l-2 -223q0 -10 -4 -23q-1 -8 -8 -25l-11 -18
l-53 -32l10 -8l8 -4q11 -5 18 -14l13 -11l4 -7l6 -8l9 -25l7 -27l3 -21v-204q0 -42 27 -63q20 -16 51 -20q7 -1 22 -1h80v-39h-82z" />
    <glyph glyph-name="Agrave" unicode="&#xc0;" horiz-adv-x="385" 
d="M293 221q-9 -15 -16 -37l-4 -37v-208q0 -58 -43 -91q-27 -21 -69 -28q-12 -2 -30 -2h-80v39h78q46 0 71 21q27 17 27 63l2 225l8 26l10 25l13 18l12 10l17 13l7 4l11 7l-51 34l-11 13l-8 20l-8 26l-2 22v208q0 37 -30 63t-68 26l-78 1v31h80l8 1l7 2l6 1h9q45 0 78.5 -39
t33.5 -85l1 -227q1 -11 4 -18l6 -18l8 -16l5 -8l15 -15l10 -8l8 -6l12 -8q-30 -15 -49 -48z" />
    <glyph glyph-name="Aacute" unicode="&#xc1;" horiz-adv-x="362" 
d="M445 -33l-150 102l-22 23l-14 22l-4 21v51l-185 -103l-31 33l178 104q-25 0 -50 7q-61 24 -85 65q-12 20 -12 43v106h-64l-20 53h412l21 -53h-121l2 -328l7 -22l11 -20q4 -4 16 -13l124 -87zM255 441h-132v-105q0 -46 38 -76q17 -13 43 -21.5t51 -8.5v211z" />
    <glyph glyph-name="Acircumflex" unicode="&#xc2;" 
 />
    <glyph glyph-name="Atilde" unicode="&#xc3;" 
 />
    <glyph glyph-name="Adieresis" unicode="&#xc4;" 
 />
    <glyph glyph-name="Aring" unicode="&#xc5;" horiz-adv-x="525" 
d="M261 441l20 -18q11 -10 16 -22l10 -25l4 -25q0 -45 -34 -66l-26 -12q38 -19 59 -40q7 8 24 25q14 12 27 18l28 12q11 3 29 5q39 0 69 -34q20 -19 28 -58q2 -10 2 -25q0 -16 -4 -29l-10 -32l-31 -74l-54 33l18 25l15 23l20 36l12 30l3 18q0 23 -15 39q-8 8 -19 12l-22 4
q-18 0 -45 -16l-26 -19l-23 -25l15 -31q3 -8 5 -24q0 -50 -48 -85q-20 -14 -45 -24q-28 -7 -45 -7q-43 0 -96 41q-63 49 -96 117l-4 15q0 7 2 10l9 4q7 -3 9 -5l9 -15q9 -16 29 -46q34 -43 79 -69q20 -9 39 -9q69 0 97 58q8 17 8 35q0 66 -82 91q-23 7 -47 7q-36 0 -60 -14
l-20 55l6 1l7 2h6l6 1l9 -1l17 -2q13 0 18 -2h14q30 0 49 10q35 17 35 52l-3 28l-9 24l-6 9l-5 7l-6 4l-6 2l-216 1l-23 53h538l21 -53h-285z" />
    <glyph glyph-name="AE" unicode="&#xc6;" horiz-adv-x="175" 
d="M536 658l-11 2l-10 9l-7 4l-8 3l-19 2q-37 0 -54 -25q-9 -13 -13 -29l-4 -35v-18q0 -12 2 -18l3 -20l4 -22l-10 1q-28 43 -97 80q-64 34 -124 34q-68 0 -97 -55q-7 -19 -7 -40v-10l1 -10l2 -9l3 -9l80 1l22 -53h-95l2 -327l8 -22q5 -14 11 -21l15 -13l121 -91h-10
l-150 103l-22 22q-6 6 -14 22l-4 21v306h-51l-21 53h76l-7 11l-5 16l-3 15l-1 15q-2 32 17 59.5t50 38.5q22 8 48 8q33 0 72 -9q60 -15 116 -57q26 -20 54 -49l-6 22l-4 22q0 14 -2 22l-1 23l3 36q10 53 62 53q38 0 65 -30l19 -21l4 -7z" />
    <glyph glyph-name="Ccedilla" unicode="&#xc7;" horiz-adv-x="154" 
d="M454 607l-32 31l32 33l31 -33zM263 622q-33 6 -62 6q-30 0 -50 -8q-43 -12 -58 -58q-7 -22 -7 -48l2 -11l2 -8l80 1l22 -55h-95l5 -340l5 -10l11 -20l15 -13l121 -91h-10l-150 103l-22 22l-15 21l-4 21l1 307h-51l-21 55h80l-8 10l-6 16l-4 16l-1 15q-2 36 29 69
q36 37 98 37q152 0 273 -95v-19q-8 6 -24 16q-76 46 -156 61z" />
    <glyph glyph-name="Egrave" unicode="&#xc8;" horiz-adv-x="186" 
d="M244 -33l-150 103l-22 22q-6 6 -14 22l-4 21v306h-52l-20 53h91q0 56 -26 99.5t-80 43.5q-25 0 -45 -24q-6 -7 -13 -23q-3 -8 -6 -27l-3 -20q-3 -6 -10 -6q-5 1 -6 2l-6 7l-3 4l-2 5l-2 8q0 48 24 80q27 36 72 36q53 0 92 -57t39 -129l92 1l20 -53h-113v-305q0 -17 2 -23
l7 -22l11 -19l16 -14l121 -91h-10zM152 541l-31 31l31 31l31 -31z" />
    <glyph glyph-name="Eacute" unicode="&#xc9;" horiz-adv-x="147" 
d="M502 554l-32 33l32 31l31 -31zM532 660l-9 2l-10 9l-8 5l-12 3l-11 1l-4 1q-36 0 -55 -25l-11 -29l-4 -36v-18q0 -12 2 -18l3 -20l4 -22l-11 1q-31 46 -95.5 80.5t-124.5 34.5q-45 0 -74 -29q-16 -16 -24 -32q-7 -21 -7 -37l2 -20l7 -18l80 1l22 -53h-95l5 -340l5 -10
l11 -20l15 -13l121 -91h-10l-150 103l-22 22l-14 21l-4 20v308h-51l-21 53h76l-8 11l-6 17l-4 17l-1 14q-2 33 17 60.5t50 38.5q22 8 48 8q32 0 65 -7.5t65 -23.5q59 -29 113 -84l-6 19l-4 22l-3 22l-1 25l3 36q6 36 31 48q12 5 32 5q38 0 65 -30l19 -21l4 -7z" />
    <glyph glyph-name="Ecircumflex" unicode="&#xca;" horiz-adv-x="186" 
d="M244 -33l-150 103l-22 22q-6 6 -14 22l-4 21v306h-52l-20 53h91q0 56 -26 99.5t-80 43.5q-25 0 -45 -24q-6 -7 -13 -23q-3 -8 -6 -27l-3 -20q-3 -6 -10 -6q-5 1 -6 2l-6 7l-3 4l-2 5l-2 8q0 48 24 80q27 36 72 36q53 0 92 -57t39 -129l92 1l20 -53h-113v-305q0 -17 2 -23
l7 -22l11 -19l16 -14l121 -91h-10zM236 660l-17 14l-9 5l-9 3l-10 2l-9 1q-26 0 -42 -16q-9 -7 -13 -20l-4 -27q0 -30 7 -50q10 -28 26 -54l-22 1q-5 3 -13 15l-13 31l-11 33l-6 24l-1 25q-2 59 45 86q12 5 30 7q17 0 26.5 -3.5t21.5 -13.5l19 -21l18 -27v-30z" />
    <glyph glyph-name="Edieresis" unicode="&#xcb;" horiz-adv-x="231" 
d="M225 441l-22 53h107v-53h-85zM283 146l-33 -17l-35 -11l-32 -3q-34 0 -79 36q-24 18 -37 35q-9 15 -11 33l3 24q3 14 11 23l17 20q8 9 23 18l-45 24q-33 22 -49 58q-6 18 -6 41q0 43 50 61q13 3 27 5q33 0 59 -20t26 -54q0 -9 -7 -22l-18 -23q-6 -6 -12 -11q-2 -2 -13 -9
l-25 -11l21 -18h96l32 -63l-30 7l-34 3q-42 0 -61 -15q-23 -11 -23 -48q0 -48 35 -59l28 -4l19 1l20 4l18 7l20 10q39 20 72 62v-63q-15 -15 -27 -21zM137 434l-8 14q-5 6 -13 9l-18 4q-30 0 -41 -38l-2 -24l1 -18l6 -14q2 -6 10 -9l15 -3q21 0 36 18q8 9 13 21l4 23z" />
    <glyph glyph-name="Igrave" unicode="&#xcc;" horiz-adv-x="362" 
d="M289 441v-105h-169q-11 0 -18 -5l-12 -9l-8 -14l-2 -15q0 -16 2 -24l8 -18q4 -8 15 -16q5 -4 25 -11l19 9l24 9l26 6l27 2l10 -2l11 -6l8 -10q3 -5 3 -13t-8 -13l-21 -6q-18 0 -26 -2l-19 -1q-27 -1 -47 -23q-8 -11 -13 -24l-4 -26q0 -44 56 -70q10 -3 31 -5q29 0 51 24
l-7 7l-4 8q-1 5 -2 6l-1 8q0 22 25 22q12 0 19 -4l16 -9l10 -14l4 -15q0 -25 -28 -39l63 -127h-22l-56 122l-9 -4l-23 -2h-4q-31 0 -55 7q-65 19 -91 61q-14 23 -13 46l1 22l5 17l9 15l16 15q-30 16 -52 55q-8 13 -12 45q0 37 41 57q8 3 23 5l136 1v63h-242l-21 53h378
l22 -53h-95z" />
    <glyph glyph-name="Iacute" unicode="&#xcd;" horiz-adv-x="423" 
d="M310 441v-105h-136q-12 0 -27 -6q-31 -8 -43 -32q-6 -11 -6 -25t12 -27.5t30 -20.5l33 -12l32 -4h32q10 2 14 2l36 6l32 13q21 11 32 20l23 -40l-15 -12l-15 -9l-18 -8l-16 -5v-114h-127q-20 0 -32 -5q-32 -5 -46 -30q-7 -12 -7 -26q0 -13 12 -26.5t30 -19.5l33 -12
l32 -4h31q9 2 13 2q19 0 38 7q18 3 33 13l31 21l23 -43l-27 -19l-33 -14l-37 -9l-37 -3q-47 -4 -92 19q-34 16 -58 54q-12 24 -12 55q0 39 25 59q29 24 71 24l93 1v64h-24q-72 0 -114 29q-51 34 -51 94q0 40 25 60q29 24 71 24l93 1v63h-262l-22 53h442l22 -53h-137z" />
    <glyph glyph-name="Icircumflex" unicode="&#xce;" horiz-adv-x="423" 
d="M310 441v-105h-127q-12 0 -29.5 -5t-37.5 -21q-15 -12 -18 -37q0 -14 12 -27.5t30 -20.5l33 -12l32 -4h32q10 2 14 2l36 6l32 13q21 11 32 20l23 -40l-18 -15l-20 -11l-23 -8l-24 -7v-75q19 -10 20 -11q6 -4 11 -9q19 -16 27 -24q12 -13 19 -30q4 -9 8 -31q0 -49 -38 -76
q-33 -23 -89 -23h-8l-5 1h-4l-11 1l-14 2q-25 4 -58 16q-52 20 -80 64q-11 22 -11 45q0 42 38.5 64t109.5 22h43v62q-37 0 -63 6q-63 15 -93 64q-13 30 -13 56q0 40 28 62t68 22l93 1v63h-262l-22 53h442l22 -53h-137zM320 47q-24 19 -70 17l-40 -2q-25 -1 -58 -11
q-27 -7 -32 -8q-15 -7 -25 -20q-6 -11 -6 -25q0 -36 43 -55q33 -15 68 -18h16q47 0 86 19.5t39 53.5q0 32 -21 49z" />
    <glyph glyph-name="Idieresis" unicode="&#xcf;" horiz-adv-x="439" 
d="M339 441v-105h-137q-28 0 -32 -32l3 -14l9 -12l14 -8l20 -2l14 1q7 0 14 4l22 2q84 0 103 -79q1 -7 1 -19q0 -22 -9 -35l-10 -14l-12 -13v-117h-137q-32 0 -35 -28q0 -37 39 -37l16 2q10 0 19 4l21 2q55 0 83 -35q22 -27 22 -62q0 -15 -10 -32q-21 -48 -82 -48
q-57 0 -128 53q-76 57 -134 172l-1 2l-1 3v3l-1 3l2 5l4 3q7 -3 9 -5l8 -14q14 -27 45 -75q53 -69 123 -99q31 -13 60 -13q30 0 49 16q24 12 24 36q0 16 -1.5 24.5t-4.5 11.5q-7 14 -37 12l-20 -1h-11q-4 0 -19 -4q-22 0 -39 7q-38 12 -59 51q-9 17 -9 35q0 22 15 37
q8 6 21 9l32 4l104 1v62l-14 -4l-18 -1q-37 -2 -79 21q-7 3 -26 17q-55 40 -103 125l-2 2l-2 6l1 6l6 2q11 -3 19 -21q17 -40 68 -79q61 -46 110 -42l12 1l13 3q8 2 12 5l12 7q24 14 24 37q0 26 -6 35q-12 14 -38 12l-26 -2l-14 -2l-11 -1q-42 0 -72 28q-16 14 -24.5 31
t-8.5 35q0 36 35 49l28 4l95 1v63h-295l-20 53h462l22 -53h-127z" />
    <glyph glyph-name="Eth" unicode="&#xd0;" 
 />
    <glyph glyph-name="Ntilde" unicode="&#xd1;" horiz-adv-x="531" 
d="M298 441v-177l23 24l26 19q18 13 54 17q36 0 65.5 -51t29.5 -96q0 -27 -16 -58q-10 -25 -26 -46q-3 -4 -11 -12l-31 44l21 30l17 31l11 28l4 25q0 43 -28 59q-8 4 -21 6q-16 0 -32.5 -8t-32.5 -23l-30 -33l-23 -38v-184l19 -26h-19q-35 0 -66 -15.5t-31 -46.5
q0 -13 17 -28l9 -6l9 -5l8 -3l9 -1l15 1q9 1 12 2l19 6l38 14l21 -43l-12 -5l-17 -4l-35 -2q-41 -3 -84 23q-22 13 -32 31t-10 40q0 19 8.5 34t25.5 27l36 16q18 6 40 6l-22 18v134l-12 -8l-12 -6l-13 -5l-12 -4l-28 -6l-35 -1q-34 -1 -60 21.5t-36 55.5q-7 24 -7 45
q0 41 24.5 69.5t67.5 28.5q50 0 82 -22q11 -6 21 -19q10 -9 20 -26v152h-250l-20 54h541l22 -53h-251zM256 266q-55 49 -102 49q-37 0 -59 -22q-25 -18 -25 -53q0 -52 40 -70l29 -4l15 1q11 1 16 2l15 4l15 6l29 15q17 12 27 22v50z" />
    <glyph glyph-name="Ograve" unicode="&#xd2;" horiz-adv-x="433" 
d="M130 420q0 18 -8 23l-13 5l-22 2q-18 0 -25 -13l-5 -17l-1 -23q-2 -42 47 -63l27 -4v90zM304 441h-62l-20 53h211l20 -53h-106v-305q0 -17 2 -23l7 -22l11 -19l16 -14l121 -91l-6 1l-125 81l-29 21l-22 22q-6 6 -14 22l-4 21v75h-132v-54q0 -7 -2 -10l-7 -2h-6l-4 2l-6 4
l-6 5l-54 55l-11 15l-4 12q0 6 4 9l11 4l43 1v65q-32 0 -68.5 18.5t-50.5 46.5q-8 16 -8 38q0 28 25.5 51t48.5 23q26 0 50 -19t37 -45q6 -14 8 -32v-146h132v190z" />
    <glyph glyph-name="Oacute" unicode="&#xd3;" horiz-adv-x="223" 
d="M260 105l-14 -7l-17 -4l-27 -1q-46 -2 -82 33q-17 15 -33 37q-12 22 -21 46l28 6l30 6q58 12 58 52q0 29 -31 41l-35 8l-43 3h-50l-20 -1h-14l-11 -1h-8l-20 -3l-43 -5l-1 32l25 9q13 5 28 6l32 3l32 1q32 1 72 -7q74 -15 103 -58q15 -23 15 -51q0 -23 -21 -44l-24 -18
l-29 -11l-6 -10l-1 -10q0 -29 35 -39l23 -3q30 0 49 15l17 17l24 30v-61zM-30 494l443 -1l20 -53h-106v-305q0 -17 2 -23l7 -22l11 -19l16 -14l121 -91l-6 1l-125 81l-29 21l-22 22q-6 6 -14 22l-4 21v306l-294 1z" />
    <glyph glyph-name="Ocircumflex" unicode="&#xd4;" horiz-adv-x="402" 
d="M302 441v-105h-136q-14 0 -25 -9q-6 -6 -8 -23l3 -14l9 -12l14 -8l19 -2l14 1q7 0 14 4l22 2q27 0 50 -11q42 -20 54 -68q1 -7 1 -19q0 -13 -2 -19l-6 -17l-10 -14l-13 -12v-105h-116q-17 0 -32 -6q-24 -6 -37 -32l-4 -25q0 -57 56 -83q19 -8 48 -13l-2 10l-1 15
q-4 56 39 84q14 7 29 7q23 0 47 -20q17 -14 25 -42l1 -19q1 -20 -5 -36q-12 -45 -71 -45q-14 0 -21 2l-19 3q-63 17 -113 61q-56 50 -56 96q0 40 43 65q11 7 57 18h16l73 1v51l-21 -2q-31 0 -57 9q-57 20 -106 79q-21 25 -47 73l-3 11l1 3l5 2q11 0 18 -16q20 -46 71 -84
q25 -18 54 -32q30 -10 54 -10q26 0 48 13q26 15 26 40q0 26 -6 35q-10 12 -38 12h-16l-21 -4l-15 -1q-15 -1 -38 7q-36 12 -58 51q-8 18 -8 36q0 22 15 37q8 8 21 12l28 4l93 1v63h-253l-20 53h420l22 -53h-126zM327 -83l-18 6l-19 2q-36 0 -51 -34l-4 -21v-4l1 -6l1 -5
l2 -4h4l5 -1h4l4 -1l8 -1l11 -1l27 3l23 9q19 14 19 35q0 7 -4 12.5t-13 10.5z" />
    <glyph glyph-name="Otilde" unicode="&#xd5;" 
 />
    <glyph glyph-name="Odieresis" unicode="&#xd6;" horiz-adv-x="360" 
d="M166 -8l-26 42h-13l-20 1l-17 6q-8 3 -15 10l-11 15l-8 18l-2 19q0 32 28 32q9 0 16.5 -4t13.5 -14l22 -35l9 -4l12 -1q25 -2 61 24q17 12 26 25q6 12 8 29q0 41 -16 50q-6 3 -12 3l-14 -3l-23 -7l-23 -8l-16 -2q-11 0 -21 5l-24 16l-23 23l-16 25l-9 26l-3 26
q0 47 42 63q15 5 31 5l95 1v63h-210l-21 53h393l20 -53h-139v-105h-138q-29 0 -38 -33l-3 -21q0 -24 18 -38l21 -11l25 -3l10 2l13 2h6l5 1h5l22 -1l31 -3q20 0 28 -2l16 -1l23 1q15 2 21 5l19 9q10 7 18 16v-41q-8 -6 -28 -11l-42 -3l-19 1q-11 1 -15 4q23 -26 23 -63
t-34 -67q-26 -23 -55 -32q-7 -2 -27 -7l24 -46z" />
    <glyph glyph-name="multiply" unicode="&#xd7;" 
 />
    <glyph glyph-name="Oslash" unicode="&#xd8;" horiz-adv-x="492" 
d="M298 441v-177l22 25l21 18l25 12q8 3 27 5q36 0 65.5 -51t29.5 -96q0 -27 -16 -58q-10 -25 -26 -46q-3 -4 -11 -12l-31 44l21 30l17 31l11 28l4 25q0 13 -5 23q-5 25 -27 37q-9 4 -24 6q-28 0 -56 -26l-25 -29l-22 -33v-61l2 -23l7 -22l11 -20q6 -7 16 -13l122 -90
l-11 -1l-150 102l-22 23l-14 23l-4 21v28l-24 -18l-38 -31l-111 -96l-43 22l105 93q-27 0 -43 8q-38 19 -53 69q-7 24 -7 46q0 41 24.5 69.5t67.5 28.5q50 0 79 -19q13 -9 23 -22l20 -25v152h-249l-20 53h504l21 -53h-213zM255 266q-55 49 -101 49q-37 0 -59 -22
q-25 -18 -25 -53q0 -79 69 -74l15 1q11 1 16 2l15 4l15 6l29 15l26 21v51z" />
    <glyph glyph-name="Ugrave" unicode="&#xd9;" horiz-adv-x="253" 
d="M6 441l-22 53h327v-53h-305zM217 294q-28 0 -45 -20l-17 -20q-4 -6 -9 -24l-3 -10l-1 -10q0 -7 -2 -11v-10q0 -37 15 -78q4 -13 12 -27l25 -44q4 -8 15 -21q3 -3 19 -21h-20l-36 52l-36 54q-46 70 -43 124l1 16q0 8 4 17l6 16l9 16l-73 1l-21 42h294v-42h-94z" />
    <glyph glyph-name="Uacute" unicode="&#xda;" horiz-adv-x="253" 
d="M6 441l-22 53h327v-53h-305zM290 281l-16 -8l-39 -15l-31 -5q-42 0 -107 20l-26 8l-33 12l-21 43l36 -13l30 -8l68 -15l53 -5q17 0 30 5l39 15l16 8l22 12v-41z" />
    <glyph glyph-name="Ucircumflex" unicode="&#xdb;" horiz-adv-x="287" 
d="M206 156q-19 -7 -42 -7q-50 0 -75 30q-9 10 -20 33q-6 18 -6 41q0 46 28 75.5t73 29.5q27 0 43 -8q26 -10 42 -38t16 -58q0 -31 -15 -58q-17 -30 -44 -40z" />
    <glyph glyph-name="Udieresis" unicode="&#xdc;" horiz-adv-x="231" 
d="M251 441l-21 53h84v-53h-63zM306 234l-11 -1l-15 1l-19 6l-49 18l-51 24l-35 -28l-38 -25l-39 -23l-39 -18l-33 32l48 24l18 10l41 25l34 25l-42 24l-29 24q-25 20 -29 57q0 18 13 38q28 46 83 46q46 0 81 -33t35 -72q0 -23 -14 -43q-5 -10 -17 -24l-21 -24l94 -35
q8 -2 15 -5l12 -6l8 -6l3 -5q-2 -5 -4 -6zM134 461q-41 0 -58 -36l-4 -28q0 -13 5 -23l13 -19l20 -20l28 -18l20 22l16 24l9 22l4 24q0 52 -53 52z" />
    <glyph glyph-name="Yacute" unicode="&#xdd;" horiz-adv-x="509" 
d="M298 441v-184l24 28l21 20q16 15 55 19q37 0 66.5 -51t29.5 -96q0 -27 -16 -58q-10 -25 -26 -46q-3 -4 -11 -12l-31 44l21 31l17 30l10 28l4 25q0 13 -3.5 22.5t-13.5 20.5q-12 17 -38 21q-15 0 -33 -7q-27 -12 -55 -52q-12 -17 -22 -39v-49q0 -17 2 -23l7 -22l11 -19
l16 -14l123 -88l-12 -3l-121 82q-13 8 -37 28q-6 6 -12 15l-15 22l-4 21v51l-185 -103l-31 33l178 104q-25 0 -50 7q-61 24 -85 65q-12 20 -12 43v106h-64l-20 53h531l21 -53h-240zM255 441h-132v-105q0 -46 38 -76q17 -13 43 -21.5t51 -8.5v211z" />
    <glyph glyph-name="Thorn" unicode="&#xde;" horiz-adv-x="346" 
d="M312 532l-3 -19l-9 -24l-13 -33l-15 -27l-22 -37l-20 -32l-9 -13l-28 18l12 15l9 12l19 29q8 13 13 26l8 23l5 22l1 7l-49 50l51 51l52 -51zM186 540q0 -7 -4 -19l-9 -26l-15 -35q-6 -14 -14 -27l-24 -39l-28 -43l-28 18l12 15l9 12l20 30q8 12 13 26l8 22l4 22l1 7
l-49 50l51 51l53 -51v-13z" />
    <glyph glyph-name="germandbls" unicode="&#xdf;" horiz-adv-x="311" 
d="M269 592l-20 -29l-12 -24l-7 -19l-4 -14q0 -7 -2 -11l-1 -8l50 -48l-52 -50l-53 50v11q0 7 4 19l9 26l16 35l15 30l50 78l29 -17zM140 596l-20 -29l-12 -24l-7 -19l-4 -14q0 -7 -2 -11l-1 -8l51 -48l-53 -50l-53 50v11q0 7 4 19l9 26l16 35l14 26l23 39l19 31l9 12
l29 -17z" />
    <glyph glyph-name="agrave" unicode="&#xe0;" horiz-adv-x="402" 
d="M344 441v-116h-200q-15 0 -26 -4l-16 -9q-6 -6 -9 -15l-3 -20l2 -10l7 -12l4 -6l6 -6l5 -7l6 -6l22 8l27 7l29 3l30 2q55 4 110 -24q48 -24 48 -60v-219l-42 20v74q-18 -15 -40 -23t-46 -8q-54 0 -77 39q-6 14 -6 33q0 40 24 60q17 14 41 19q5 1 17 1q50 0 87 -33v49
q0 22 -21 33l-24 8l-30 3l-41 -2q-48 -8 -91 -39q-47 -34 -47 -77q0 -49 53 -110q49 -57 116 -89v-22q-77 36 -140 100q-75 76 -70 132l3 36q3 16 11 29l18 24l25 20l-22 19q-16 18 -23 46l-2 26q-1 18 19 37q8 6 23 10l32 4l169 1v74h-296l-20 53h420l22 -53h-84zM344 105
l-20 12l-19 10l-19 6l-16 2q-40 0 -57 -37q-5 -10 -7 -25q0 -23 10 -33l12 -8l17 -2l25 3q28 9 42 17q1 1 11 8l21 15v32z" />
    <glyph glyph-name="aacute" unicode="&#xe1;" horiz-adv-x="506" 
d="M603 -33l-121 39l-17 11q-8 5 -13 9l-19 16l-9 9l-5 9l-4 8l-1 9q-8 -8 -23 -17l-28 -11l-15 -4l-15 -3q-10 0 -16 -2h-15q-15 0 -27 3t-28 12q-41 18 -41 49q0 10 6 21l18 20l30 21l30 22l3 7l2 8l-3 9l-9 7l-13 3l-16 2q-13 0 -20 -2l-17 -3q-42 -15 -59 -25
q-29 -19 -39 -48q-6 -19 -6 -42q0 -39 60 -83.5t129 -64.5q10 -3 10 -15l-10 -5q-44 13 -81 32q-48 24 -68 40l-34 27q-24 19 -42 53l-7 27q0 72 40 112l-23 19q-16 18 -23 46l-2 25q-3 33 37 45l24 4l147 1v74h-264l-20 53h544l21 -53h-95v-361q0 -38 36 -65l122 -45z
M414 441h-101v-116h-169q-16 0 -25.5 -3t-14.5 -8l-8 -14l-2 -19l2 -11l6 -13l9 -13l12 -11l23 11l29 9l32 6l32 2q15 1 30 -8q36 -16 56 -49q6 -12 8 -27q-2 -3 -3 -4q-6 -8 -10 -12l-37 -34q-24 -18 -24 -45q0 -9 6 -15l18 -4q28 0 61 19l36 21q15 9 34 29v309z" />
    <glyph glyph-name="acircumflex" unicode="&#xe2;" horiz-adv-x="339" 
d="M313 441v-116h-169q-16 0 -25.5 -3t-14.5 -8l-8 -14l-2 -19l2 -11l6 -13l9 -13l12 -11l23 11l29 9l32 6l32 2q15 1 30 -8q36 -16 56 -49q6 -12 8 -27q-1 -1 -1 -2q-3 -5 -9 -10l-27 -18q-37 -25 -37 -54q0 -24 29 -28h9l8 1l7 2l12 6l11 5l10 2l8 -3l7 -7l4 -10l2 -11
l-15 -6l-13 -3l-15 -1h-21q-15 0 -27 3t-28 12q-41 18 -41 49q0 10 6 21l18 20l30 21l30 22l3 8l2 8l-3 8l-8 6l-12 3l-15 2h-10l-4 -1l-12 -1l-14 -2q-45 -6 -72 -33q-13 -13 -22.5 -35t-9.5 -47q0 -39 61 -90l63 -41q28 -15 65 -26v-22q-53 17 -112 53q-66 41 -95 81
q-20 26 -25 56q0 72 40 112l-23 19q-16 18 -23 46l-2 25q-2 20 23 35l23 10l25 4l137 1v74h-264l-20 53h431v-53h-104z" />
    <glyph glyph-name="atilde" unicode="&#xe3;" horiz-adv-x="498" 
d="M590 -33l-121 82l-20 11l-20 14q-25 18 -29 41l-92 1v-33q0 -26 -13 -26l-5 2l-3 2l-76 77l-1 6l3 8q3 3 10 3l54 1v11q0 16 -5 26q-5 17 -37 23q-17 3 -43 3q-8 0 -13 -1t-10 -6l-12 -8l-12 -12q-25 -25 -27 -57l-2 -27q-3 -39 36 -76q14 -11 36 -22l53 -19l22 -6l24 -7
v-22q-36 4 -75 19q-92 35 -127 92q-22 36 -19 68l2 23q1 10 8 24l11 22l13 18l-11 5l-6 4l-15 12l-14 18l-12 26l-4 23q0 44 47 61q12 4 33 6l136 1v63h-251l-21 53h534l22 -53h-96v-325q0 -13 2 -19l7 -14l10 -11l17 -14l123 -89zM400 441h-103v-105h-179q-10 0 -18.5 -4
t-13.5 -10.5t-8 -17.5l-2 -19q0 -13 2 -18l6 -16l11 -13l13 -8l13 8l18 6l24 4l29 2q23 2 47 -8q22 -6 39 -22q26 -20 30 -54v-10h92v285z" />
    <glyph glyph-name="adieresis" unicode="&#xe4;" horiz-adv-x="567" 
d="M351 441v-179l22 24l24 21l24 12q9 3 26 5q36 0 68 -53q12 -20 19.5 -47.5t7.5 -46.5q0 -31 -15 -59q-7 -20 -26 -45q-3 -4 -11 -12l-32 44l21 29l17 32l11 29l4 24q0 29 -15 43q-9 16 -38 20l-15 -2q-5 0 -14 -5l-15 -8l-15 -11l-25 -27l-23 -34v-59q0 -17 2 -23l7 -22
l11 -19l16 -14l123 -88l-12 -3l-149 103q-11 8 -21 23l-15 23l-4 21v157h-92q-28 0 -45 -20l-17 -20q-4 -6 -9 -24l-3 -10l-1 -10q0 -7 -2 -11v-10q0 -37 15 -78q4 -13 12 -27l25 -44q4 -8 15 -21q3 -3 19 -21h-20l-36 52l-36 54q-46 70 -43 124l1 16q0 8 4 17l6 16l9 16
l-73 1l-21 42h292v105h-303l-22 53h587l22 -53h-242z" />
    <glyph glyph-name="aring" unicode="&#xe5;" horiz-adv-x="447" 
d="M306 147q-20 -22 -40 -33q-23 -10 -43 -10q-60 0 -92 39q-18 22 -26 44.5t-8 52.5q0 43 21 78q23 39 59 59q21 11 46 11q30 0 49 -8q50 -16 68 -64q9 -24 9 -55q0 -67 -43 -114zM253 345q-16 10 -30 10q-43 0 -68 -25q-9 -11 -15.5 -28.5t-6.5 -34.5q0 -71 53 -108
q15 -8 37 -13h21q73 0 73 84q0 73 -64 115z" />
    <glyph glyph-name="ae" unicode="&#xe6;" horiz-adv-x="378" 
d="M297 441v-85l-1 -4l-2 -7l-3 -3l-7 -6l-7 -1l-85 1q-23 0 -50 -13t-37 -32q-8 -14 -8 -30q0 -53 41 -80q13 -9 42 -20q24 -6 54 -6l-4 11l-3 9q-1 7 -2 9v10l1 11l5 11l9 8l14 6q18 0 30 -14q7 -9 10 -20l3 -20q0 -26 -20 -41l83 -138l-20 -11l-86 139l-200 -115l-20 31
l158 95q-39 0 -88 48q-21 21 -38 46q-12 23 -12 43q0 46 34 75t73 29l93 1v63h-251l-21 53h400l21 -53h-106z" />
    <glyph glyph-name="ccedilla" unicode="&#xe7;" horiz-adv-x="362" 
d="M445 -33l-150 102l-22 23l-14 22l-4 21v51l-185 -103l-31 33l178 104q-25 0 -50 7q-61 24 -85 65q-12 20 -12 43v106h-64l-20 53h412l21 -53h-121l2 -328l7 -22l11 -20q4 -4 16 -13l124 -87zM255 441h-132v-105q0 -46 38 -76q17 -13 43 -21.5t51 -8.5v211z" />
    <glyph glyph-name="egrave" unicode="&#xe8;" horiz-adv-x="231" 
d="M225 441l-22 53h107v-53h-85zM283 146l-33 -17l-35 -11l-32 -3q-34 0 -79 36q-24 18 -37 35q-9 15 -11 33l3 24q3 14 11 23l17 20q8 9 23 18l-45 24q-33 22 -49 58q-6 18 -6 41q0 43 50 61q13 3 27 5q33 0 59 -20t26 -54q0 -9 -7 -22l-18 -23q-6 -6 -12 -11q-2 -2 -13 -9
l-25 -11l21 -18h96l32 -63l-30 7l-34 3q-42 0 -61 -15q-23 -11 -23 -48q0 -48 35 -59l28 -4l19 1l20 4l18 7l20 10q39 20 72 62v-63q-15 -15 -27 -21zM137 434l-8 14q-5 6 -13 9l-18 4q-30 0 -41 -38l-2 -24l1 -18l6 -14q2 -6 10 -9l15 -3q21 0 36 18q8 9 13 21l4 23z" />
    <glyph glyph-name="eacute" unicode="&#xe9;" horiz-adv-x="418" 
d="M498 -33l-150 102l-22 23l-14 23l-4 21v72l-144 -61l4 -34l1 -14l1 -5q0 -20 -12 -23l-11 2l-14 9l-50 39l-4 6l-3 5l-1 6q0 17 27 28l189 77q-8 12 -25 25q-24 17 -44 24l-52 17q-18 6 -48 6l-1 -27l-1 -17q-2 -13 -5 -19q-4 -11 -13 -12q-9 0 -19 7l-22 23
q-12 16 -16.5 27t-6.5 27q0 31 73 31q54 0 107 -27.5t90 -74.5v185h-302l-22 56h441l20 -57h-93v-301q0 -16 2 -23l6 -22l11 -19l15 -14l122 -84z" />
    <glyph glyph-name="ecircumflex" unicode="&#xea;" horiz-adv-x="423" 
d="M310 441v-105h-136q-12 0 -27 -6q-31 -8 -43 -32q-6 -11 -6 -25t12 -27.5t30 -20.5l33 -12l32 -4h32q10 2 14 2l36 6l32 13q21 11 32 20l23 -40l-15 -12l-15 -9l-18 -8l-16 -5v-114h-127q-20 0 -32 -5q-32 -5 -46 -30q-7 -12 -7 -26q0 -13 12 -26.5t30 -19.5l33 -12
l32 -4h31q9 2 13 2q19 0 38 7q18 3 33 13l31 21l23 -43l-27 -19l-33 -14l-37 -9l-37 -3q-47 -4 -92 19q-34 16 -58 54q-12 24 -12 55q0 39 25 59q29 24 71 24l93 1v64h-24q-72 0 -114 29q-51 34 -51 94q0 40 25 60q29 24 71 24l93 1v63h-262l-22 53h442l22 -53h-137z" />
    <glyph glyph-name="edieresis" unicode="&#xeb;" horiz-adv-x="423" 
d="M310 441v-105h-127q-12 0 -29.5 -5t-37.5 -21q-15 -12 -18 -37q0 -14 12 -27.5t30 -20.5l33 -12l32 -4h32q10 2 14 2l36 6l32 13q21 11 32 20l23 -40l-18 -15l-20 -11l-23 -8l-24 -7v-75q19 -10 20 -11q6 -4 11 -9q19 -16 27 -24q12 -13 19 -30q4 -9 8 -31q0 -49 -38 -76
q-33 -23 -89 -23h-8l-5 1h-4l-11 1l-14 2q-25 4 -58 16q-52 20 -80 64q-11 22 -11 45q0 42 38.5 64t109.5 22h43v62q-37 0 -63 6q-63 15 -93 64q-13 30 -13 56q0 40 28 62t68 22l93 1v63h-262l-22 53h442l22 -53h-137zM320 47q-24 19 -70 17l-40 -2q-25 -1 -58 -11
q-27 -7 -32 -8q-15 -7 -25 -20q-6 -11 -6 -25q0 -36 43 -55q33 -15 68 -18h16q47 0 86 19.5t39 53.5q0 32 -21 49z" />
    <glyph glyph-name="igrave" unicode="&#xec;" horiz-adv-x="439" 
d="M339 441v-105h-137q-28 0 -32 -32l3 -14l9 -12l14 -8l20 -2l14 1q7 0 14 4l22 2q84 0 103 -79q1 -7 1 -19q0 -22 -9 -35l-10 -14l-12 -13v-117h-137q-32 0 -35 -28q0 -37 39 -37l16 2q10 0 19 4l21 2q55 0 83 -35q22 -27 22 -62q0 -15 -10 -32q-21 -48 -82 -48
q-57 0 -128 53q-76 57 -134 172l-1 2l-1 3v3l-1 3l2 5l4 3q7 -3 9 -5l8 -14q14 -27 45 -75q53 -69 123 -99q31 -13 60 -13q30 0 49 16q24 12 24 36q0 16 -1.5 24.5t-4.5 11.5q-7 14 -37 12l-20 -1h-11q-4 0 -19 -4q-22 0 -39 7q-38 12 -59 51q-9 17 -9 35q0 22 15 37
q8 6 21 9l32 4l104 1v62l-14 -4l-18 -1q-37 -2 -79 21q-7 3 -26 17q-55 40 -103 125l-2 2l-2 6l1 6l6 2q11 -3 19 -21q17 -40 68 -79q61 -46 110 -42l12 1l13 3q8 2 12 5l12 7q24 14 24 37q0 26 -6 35q-12 14 -38 12l-26 -2l-14 -2l-11 -1q-42 0 -72 28q-16 14 -24.5 31
t-8.5 35q0 36 35 49l28 4l95 1v63h-295l-20 53h462l22 -53h-127z" />
    <glyph glyph-name="iacute" unicode="&#xed;" horiz-adv-x="362" 
d="M289 441v-105h-169q-11 0 -18 -5l-12 -9l-8 -14l-2 -15q0 -16 2 -24l8 -18q4 -8 15 -16q5 -4 25 -11l19 9l24 9l26 6l27 2l10 -2l11 -6l8 -10q3 -5 3 -13t-8 -13l-21 -6q-18 0 -26 -2l-19 -1q-27 -1 -47 -23q-8 -11 -13 -24l-4 -26q0 -44 56 -70q10 -3 31 -5q29 0 51 24
l-7 7l-4 8q-1 5 -2 6l-1 8q0 22 25 22q12 0 19 -4l16 -9l10 -14l4 -15q0 -25 -28 -39l63 -127h-22l-56 122l-9 -4l-23 -2h-4q-31 0 -55 7q-65 19 -91 61q-14 23 -13 46l1 22l5 17l9 15l16 15q-30 16 -52 55q-8 13 -12 45q0 37 41 57q8 3 23 5l136 1v63h-242l-21 53h378
l22 -53h-95z" />
    <glyph glyph-name="icircumflex" unicode="&#xee;" horiz-adv-x="223" 
d="M260 105l-14 -7l-17 -4l-27 -1q-46 -2 -82 33q-17 15 -33 37q-12 22 -21 46l28 6l30 6q58 12 58 52q0 29 -31 41l-35 8l-43 3h-50l-20 -1h-14l-11 -1h-8l-20 -3l-43 -5l-1 32l25 9q13 5 28 6l32 3l32 1q32 1 72 -7q74 -15 103 -58q15 -23 15 -51q0 -23 -21 -44l-24 -18
l-29 -11l-6 -10l-1 -10q0 -29 35 -39l23 -3q30 0 49 15l17 17l24 30v-61zM-30 494l443 -1l20 -53h-106v-305q0 -17 2 -23l7 -22l11 -19l16 -14l121 -91l-6 1l-125 81l-29 21l-22 22q-6 6 -14 22l-4 21v306l-294 1z" />
    <glyph glyph-name="idieresis" unicode="&#xef;" horiz-adv-x="402" 
d="M302 441v-105h-136q-14 0 -25 -9q-6 -6 -8 -23l3 -14l9 -12l14 -8l19 -2l14 1q7 0 14 4l22 2q27 0 50 -11q42 -20 54 -68q1 -7 1 -19q0 -13 -2 -19l-6 -17l-10 -14l-13 -12v-105h-116q-17 0 -32 -6q-24 -6 -37 -32l-4 -25q0 -57 56 -83q19 -8 48 -13l-2 10l-1 15
q-4 56 39 84q14 7 29 7q23 0 47 -20q17 -14 25 -42l1 -19q1 -20 -5 -36q-12 -45 -71 -45q-14 0 -21 2l-19 3q-63 17 -113 61q-56 50 -56 96q0 40 43 65q11 7 57 18h16l73 1v51l-21 -2q-31 0 -57 9q-57 20 -106 79q-21 25 -47 73l-3 11l1 3l5 2q11 0 18 -16q20 -46 71 -84
q25 -18 54 -32q30 -10 54 -10q26 0 48 13q26 15 26 40q0 26 -6 35q-10 12 -38 12h-16l-21 -4l-15 -1q-15 -1 -38 7q-36 12 -58 51q-8 18 -8 36q0 22 15 37q8 8 21 12l28 4l93 1v63h-253l-20 53h420l22 -53h-126zM327 -83l-18 6l-19 2q-36 0 -51 -34l-4 -21v-4l1 -6l1 -5
l2 -4h4l5 -1h4l4 -1l8 -1l11 -1l27 3l23 9q19 14 19 35q0 7 -4 12.5t-13 10.5z" />
    <glyph glyph-name="eth" unicode="&#xf0;" horiz-adv-x="410" 
d="M289 441v-74q19 -10 20 -11q6 -4 11 -9q27 -22 37 -37q13 -19 17 -49q0 -60 -53 -86l-38 -10v-71l32 -21q34 -22 45 -53q5 -14 7 -31q0 -45 -36 -75q-38 -25 -87 -25q-68 0 -123 34q-59 36 -59 96q0 64 80 81q26 5 56 5h43v61q-38 0 -67 9q-65 20 -94 68q-13 22 -13 50
q0 47 35 66q42 21 103 20l42 -1v63h-242l-22 53h433l20 -53h-147zM276 331l-60 4l-49 -3q-21 -1 -34 -8q-35 -11 -35 -51q0 -37 42 -56q14 -6 36 -12l41 -4q56 0 87 17q37 20 37 55q0 54 -65 58zM250 64l-40 -2q-19 -3 -57 -11q-23 -6 -30 -8q-17 -7 -23 -19t-6 -26
q0 -37 40 -56q17 -8 34 -12q22 -5 42 -5q48 0 87 19.5t39 53.5q0 35 -27 52q-23 16 -59 14z" />
    <glyph glyph-name="ntilde" unicode="&#xf1;" horiz-adv-x="362" 
d="M289 441v-125h-105q-48 0 -76 -25.5t-28 -71.5q0 -49 40.5 -83.5t93.5 -34.5l24 4l-2 3l-2 7l-1 8v8q0 12 2 18l7 15q5 8 11 9l16 4l18 -3l17 -8q8 -5 12 -13l4 -18q0 -13 -2 -19l-6 -17l-9 -13l-13 -7l41 -81q-49 0 -87.5 -15.5t-38.5 -46.5q0 -6 4 -14l15 -14l18 -10
l16 -4q24 0 45 7q8 3 24 10l15 5l20 -42l-12 -5l-16 -4l-18 -2l-16 -1q-41 -3 -83 23q-22 13 -32.5 32t-10.5 39q0 53 73 77q21 7 42 7l-19 29l-22 -2q-39 0 -71.5 11.5t-67.5 41.5q-39 32 -55 65.5t-16 75.5q0 36 28 63q22 22 65 29q11 2 31 2l85 1v85h-242l-21 53h378
l22 -53h-95z" />
    <glyph glyph-name="ograve" unicode="&#xf2;" 
 />
    <glyph glyph-name="oacute" unicode="&#xf3;" horiz-adv-x="607" 
d="M190 441v-136l33 12l29 10l30 6l35 2q28 2 70 -24q48 -29 67 -56v186h-264zM349 74l-32 31l137 102v23l-188 -63l-33 31l180 53q0 18 -31 31l-29 8l-25 3q-25 0 -37 -2l-35 -6l-35 -10l-39 -14l-8 -21l-5 -10q-6 -12 -17 -23l-24 -19l178 -168l-20 -22l-230 227l-8 17
l-2 15q0 24 29 24h11l4 -1h4l9 -3q6 0 14 -4q22 0 22 31v137h-137l-20 53h637l17 -53h-139v-305q0 -17 2 -23l7 -22l11 -19l16 -14l121 -91l-6 1l-125 81l-29 21l-22 22q-6 6 -14 22l-4 21v18z" />
    <glyph glyph-name="ocircumflex" unicode="&#xf4;" horiz-adv-x="513" 
d="M290 441v-137l23 24l26 19q18 13 54 17q36 0 65.5 -51t29.5 -96q0 -27 -16 -58q-10 -25 -26 -46q-3 -4 -11 -12l-31 44l21 30l17 31l11 28l4 25q0 43 -28 59q-8 4 -21 6q-16 0 -32.5 -8t-32.5 -23l-30 -33l-23 -38v-170l24 18l13 9l23 10l24 4q20 0 33 -8
q24 -12 38.5 -39t13.5 -56l-1 -30l-1 -20q-2 -11 -3 -16l-5 -13q-3 -9 -12 -17l-31 33l15 37q5 20 5 36q0 17 -2 24l-6 20q-3 9 -10 13q-3 3 -13 5q-15 0 -31.5 -7t-34.5 -23l-14 -12l-25 -21l1 -122l-43 29v60q-38 -25 -83 -25q-36 0 -65 14.5t-44 47.5q-10 20 -10 46
q0 40 27.5 63.5t69.5 23.5q15 0 27 -5q25 -5 51 -31l27 -27v132l-12 -8l-12 -6l-13 -5l-12 -4l-28 -6l-35 -1q-34 -1 -60 21.5t-36 55.5q-7 24 -7 45q0 41 24.5 69.5t67.5 28.5q50 0 82 -22q11 -6 21 -19q10 -9 20 -26v113h-250l-25 53h527l22 -53h-232zM248 306
q-55 49 -102 49q-37 0 -59 -22q-25 -18 -25 -53t18 -53q10 -10 22 -16l29 -4l30 3l32 10l29 15l26 21v50zM248 49l-20 18l-23 14q-13 6 -26 9l-26 3q-15 0 -26 -5q-30 -6 -42 -31q-6 -12 -6 -26q0 -31 20 -46q10 -7 23 -11l31 -4l19 3l20 7q10 3 24 15l32 26v28z" />
    <glyph glyph-name="otilde" unicode="&#xf5;" horiz-adv-x="6" 
d="M39 662l-9 2l-10 9l-6 4l-8 3l-9 1l-10 1q-40 0 -53 -27q-8 -12 -12 -31l-4 -39l1 -22l2 -23q0 -5 2 -12v-12q0 -8 2 -12l1 -11l-10 1q-13 27 -34 54l-22 29q-4 5 -28 31q-60 65 -90 69l-48 -3l-32 62q5 1 6 2l3 2l12 4l12 2q8 0 19 -4l22 -12l23 -17l20 -20l126 -157
l-4 23l-3 24l-2 25l-1 27l-1 16q-1 15 6 29q6 27 29 38q11 4 28 6q26 0 44 -14q9 -5 20 -16l20 -21l3 -7zM-106 494q-72 72 -132 72l-42 -7l-40 46l-2 5q0 6 8 10l18 4l14 -1q86 -18 188 -130zM16 558l-33 31l33 31l31 -31z" />
    <glyph glyph-name="odieresis" unicode="&#xf6;" horiz-adv-x="541" 
d="M477 441v-105h-126q-31 0 -53 -21q-8 -7 -16 -24q-5 -13 -5 -30q0 -53 41 -80q13 -9 42 -20q24 -6 54 -6l-3 9l-3 13l-3 14l-1 11v4l1 6v4l2 5l6 7l12 2q12 0 21 -4t18 -13l12 -18l4 -20q0 -11 -6 -23q-5 -7 -18 -17l85 -168l-23 -11l-84 169l-188 -74l10 -31
q0 -17 -16 -20l-14 2l-12 7l-31 22l-10 6l-7 8l-4 6l-1 8l2 7l9 7l22 10l-22 73l-24 -7l-24 -2h-17q-12 3 -18 4q-29 8 -48 42q-7 18 -7 37q0 30 17.5 45t46.5 18q51 0 88 -55q14 -20 28 -62q11 -31 20 -83l127 43q-26 7 -46 20q-44 28 -71 76q-10 23 -10 41q0 46 34 75
t73 29l93 1v63h-431l-20 53h558l20 -53h-84zM169 200q-4 41 -30 63q-13 10 -29 10q-18 0 -25 -15l-6 -17l-2 -22q0 -15 6 -27q12 -18 48 -24l41 -2z" />
    <glyph glyph-name="divide" unicode="&#xf7;" horiz-adv-x="360" 
d="M166 -8l-26 42h-13l-20 1l-17 6q-8 3 -15 10l-11 15l-8 18l-2 19q0 32 28 32q9 0 16.5 -4t13.5 -14l22 -35l9 -4l12 -1q25 -2 61 24q17 12 26 25q6 12 8 29q0 41 -16 50q-6 3 -12 3l-14 -3l-23 -7l-23 -8l-16 -2q-11 0 -21 5l-24 16l-23 23l-16 25l-9 26l-3 26
q0 47 42 63q15 5 31 5l95 1v63h-210l-21 53h393l20 -53h-139v-105h-138q-29 0 -38 -33l-3 -21q0 -24 18 -38l21 -11l25 -3l10 2l13 2h6l5 1h5l22 -1l31 -3q20 0 28 -2l16 -1l23 1q15 2 21 5l19 9q10 7 18 16v-41q-8 -6 -28 -11l-42 -3l-19 1q-11 1 -15 4q23 -26 23 -63
t-34 -67q-26 -23 -55 -32q-7 -2 -27 -7l24 -46z" />
    <glyph glyph-name="oslash" unicode="&#xf8;" horiz-adv-x="203" 
d="M244 -182q-101 0 -129 68q-11 25 -11 53v209q0 34 -19 68t-52 53l10 8l9 6l18 15l12 15l8 15l7 20l5 20l2 16v210q0 22 9 46q18 48 58 67q21 10 43 10l13 -2l17 -3l82 1v-31h-80q-20 0 -39 -8q-38 -15 -54 -48q-7 -18 -7 -35l-2 -223q0 -10 -4 -23q-1 -8 -8 -25l-11 -18
l-53 -32l10 -8l8 -4q11 -5 18 -14l13 -11l4 -7l6 -8l9 -25l7 -27l3 -21v-204q0 -42 27 -63q20 -16 51 -20q7 -1 22 -1h80v-39h-82z" />
    <glyph glyph-name="ugrave" unicode="&#xf9;" horiz-adv-x="478" 
d="M250 336h-127q-41 0 -41 -43l3 -21l10 -19q6 -9 16 -15l23 -8l116 1l20 -42h-93q-31 0 -41 -35l-2 -21l3 -28q6 -24 27 -39q7 -3 23 -5q71 0 177 98v-50l-39 -26l-44 -23l-44 -15q-23 -5 -40 -5q-40 0 -72.5 36.5t-32.5 78.5q0 10 2 16l8 17l10 14q4 6 11 7q-6 0 -12 4
l-12 8l-13 11l-12 15q-24 30 -24 68l3 23q6 22 27 33q8 4 23 6l105 1v63h-200l-21 53h511l20 -53h-106v-305q0 -17 2 -23l7 -22l11 -19l16 -14l121 -91l-6 1l-125 81l-29 21l-22 22q-6 6 -14 22l-4 21v306h-119v-105z" />
    <glyph glyph-name="glyph211" horiz-adv-x="302" 
 />
    <glyph glyph-name="glyph212" horiz-adv-x="302" 
 />
    <glyph glyph-name="c128" horiz-adv-x="953" 
 />
    <glyph glyph-name="c129" horiz-adv-x="953" 
 />
    <glyph glyph-name="c141" horiz-adv-x="953" 
 />
    <glyph glyph-name="c142" horiz-adv-x="953" 
 />
    <glyph glyph-name="c143" horiz-adv-x="953" 
 />
    <glyph glyph-name="c144" horiz-adv-x="953" 
 />
    <glyph glyph-name="c157" horiz-adv-x="953" 
 />
    <glyph glyph-name="c158" horiz-adv-x="953" 
 />
    <glyph glyph-name="mu" unicode="&#xb5;" horiz-adv-x="795" 
d="M22 210l-20 41h767l21 -41h-768z" />
    <glyph glyph-name="mu" unicode="&#x3bc;" horiz-adv-x="795" 
d="M22 210l-20 41h767l21 -41h-768z" />
  </font>
</defs>
</svg>
